# This file uses centimeters as units for non-parametric coordinates.

mtllib DoorConnector.mtl
g default
v -2.269853 16.691711 1.850116
v 6.610755 16.691711 1.850116
v 6.610755 8.654506 1.850116
v 6.610755 8.654506 1.312785
v -2.269853 16.691711 1.312785
v 6.610755 16.691711 1.312785
v -2.269853 12.779109 1.850116
v 6.610755 12.779109 1.850116
v 6.610755 12.779109 1.312785
v -2.269853 12.779109 1.312785
v 1.936885 16.691711 1.850116
v 1.936885 16.691711 1.312785
v 1.936885 12.779109 1.312785
v 1.936885 8.654506 1.312785
v 1.936885 8.654506 1.850116
v -6.119027 16.691711 1.312785
v -6.119027 16.691711 1.850116
v 1.977736 8.754505 1.850116
v 6.510768 12.779109 1.850116
v 6.510768 8.754505 1.850116
v 1.936885 16.591709 1.850116
v 6.510768 16.591709 1.850116
v -2.199193 12.849884 1.850116
v -2.269853 16.591709 1.850116
v -5.880368 16.591709 1.850116
v 1.977736 8.754505 1.642780
v 6.510768 12.779109 1.642780
v 6.510768 8.754505 1.642780
v 1.936885 16.591709 1.642780
v 6.510768 16.591709 1.642780
v -2.199193 12.849884 1.642780
v -2.269853 16.591709 1.642780
v -5.880368 16.591709 1.642780
v 2.018584 8.854507 1.848277
v 1.936885 12.779109 1.848281
v 6.410765 12.779109 1.848277
v 6.410765 8.854507 1.848277
v 1.936885 16.491710 1.848277
v 6.410765 16.491710 1.848277
v -2.128545 12.920654 1.848277
v -2.269853 16.491710 1.848277
v -5.641706 16.491710 1.848277
v 6.586943 8.550838 1.477676
v 1.993243 8.550838 1.477676
v 6.586943 8.550838 1.840331
v 1.993243 8.550838 1.840331
v 6.586943 -8.500568 1.840331
v 1.993243 -8.500568 1.840331
v 6.586943 -8.500568 1.477676
v 1.993243 -8.500568 1.477676
v 6.586943 8.550838 1.840331
v 1.993243 8.550838 1.840331
v 1.993243 -8.500568 1.840331
v 6.586943 -8.500568 1.840331
v 6.486945 8.450840 1.840331
v 2.093242 8.450840 1.840331
v 2.093242 -8.400566 1.840331
v 6.486945 -8.400566 1.840331
v 6.486945 8.450840 1.840331
v 2.093242 8.450840 1.840331
v 2.093242 -8.400566 1.840331
v 6.486945 -8.400566 1.840331
v 6.486945 8.450840 1.619674
v 2.093242 8.450840 1.619674
v 2.093242 -8.400566 1.619674
v 6.486945 -8.400566 1.619674
v 6.386947 8.350837 1.870509
v 2.193240 8.350837 1.870509
v 2.193240 -8.300565 1.870509
v 6.386947 -8.300565 1.870509
v -2.269853 -16.589503 1.850116
v 6.610755 -16.589503 1.850116
v 6.610755 -8.552298 1.850116
v 6.610755 -8.552298 1.312785
v -2.269853 -16.589503 1.312785
v 6.610755 -16.589503 1.312785
v -2.269853 -12.676903 1.850116
v 6.610755 -12.676903 1.850116
v 6.610755 -12.676904 1.312785
v -2.269853 -12.676904 1.312785
v 1.936885 -16.589503 1.850116
v 1.936885 -16.589503 1.312785
v 1.936885 -12.676904 1.312785
v 1.936885 -8.552298 1.312785
v 1.936885 -8.552298 1.850116
v -6.119027 -16.589503 1.312785
v -6.119027 -16.589503 1.850116
v 1.977736 -8.652298 1.850116
v 6.510768 -12.676903 1.850116
v 6.510768 -8.652298 1.850116
v 1.936885 -16.489503 1.850116
v 6.510768 -16.489503 1.850116
v -2.199193 -12.747676 1.850116
v -2.269853 -16.489503 1.850116
v -5.880368 -16.489503 1.850116
v 1.977736 -8.652298 1.642780
v 6.510768 -12.676903 1.642780
v 6.510768 -8.652298 1.642780
v 1.936885 -16.489503 1.642780
v 6.510768 -16.489503 1.642780
v -2.199193 -12.747676 1.642780
v -2.269853 -16.489503 1.642780
v -5.880368 -16.489503 1.642780
v 2.018584 -8.752299 1.848277
v 1.936885 -12.676903 1.848281
v 6.410765 -12.676903 1.848277
v 6.410765 -8.752299 1.848277
v 1.936885 -16.389503 1.848277
v 6.410765 -16.389503 1.848277
v -2.128545 -12.818449 1.848277
v -2.269853 -16.389503 1.848277
v -5.641706 -16.389503 1.848277
v 1.446360 -16.757427 1.533656
v 6.696658 -16.757427 1.533656
v 1.446360 16.757427 1.533656
v 6.696658 16.757427 1.533656
v 1.446360 16.757427 -1.870511
v 6.696658 16.757427 -1.870511
v 1.446360 -16.757427 -1.870511
v 6.696658 -16.757427 -1.870511
v 1.446360 8.730911 1.533656
v 1.446360 8.730911 -1.870511
v 6.696658 8.730911 -1.870511
v 6.696658 8.730911 1.533656
v 1.446360 -8.730913 1.533656
v 1.446360 -8.730913 -1.870511
v 6.696658 -8.730913 -1.870511
v 6.696658 -8.730913 1.533656
v -6.696660 -16.757427 -1.870511
v -6.696660 -16.757427 1.533656
v -1.918088 -8.730913 1.533656
v -1.918088 -8.730913 -1.870511
v -1.918088 8.730911 1.533656
v -1.918088 8.730911 -1.870511
v -6.696660 16.757427 1.533656
v -6.696660 16.757427 -1.870511
vt 0.458238 0.250000
vt 0.458238 0.121703
vt 0.625000 0.121703
vt 0.625000 0.250000
vt 0.458238 0.500000
vt 0.458238 0.250000
vt 0.625000 0.250000
vt 0.625000 0.500000
vt 0.458238 0.628297
vt 0.625000 0.628297
vt 0.458238 1.000000
vt 0.458238 0.750000
vt 0.625000 0.750000
vt 0.625000 1.000000
vt 0.625000 0.121703
vt 0.875000 0.121703
vt 0.875000 0.250000
vt 0.125000 0.121703
vt 0.375000 0.121703
vt 0.458238 0.000000
vt 0.625000 0.000000
vt 0.625000 0.000000
vt 0.875000 0.000000
vt 0.375000 0.750000
vt 0.375000 1.000000
vt 0.375000 0.628297
vt 0.375000 0.121703
vt 0.375000 0.000000
vt 0.125000 0.000000
vt 0.375000 0.000000
vt 0.374997 0.000003
vt 0.125005 0.000003
vt 0.374997 0.000003
vt 0.625000 0.250000
vt 0.625000 0.121703
vt 0.458238 0.250000
vt 0.458238 0.000000
vt 0.625000 0.000000
vt 0.458238 0.000000
vt 0.375000 0.121703
vt 0.375000 0.000000
vt 0.374997 0.000003
vt 0.625000 0.250000
vt 0.625000 0.121703
vt 0.458238 0.250000
vt 0.625000 0.000000
vt 0.458238 0.000000
vt 0.375000 0.121703
vt 0.375000 0.000000
vt 0.374997 0.000003
vt 0.375000 0.000000
vt 0.625000 0.000000
vt 0.625000 0.250000
vt 0.375000 0.250000
vt 0.375000 0.250000
vt 0.625000 0.250000
vt 0.625000 0.500000
vt 0.375000 0.500000
vt 0.375000 0.500000
vt 0.625000 0.500000
vt 0.625000 0.750000
vt 0.375000 0.750000
vt 0.625000 1.000000
vt 0.375000 1.000000
vt 0.875000 0.000000
vt 0.875000 0.250000
vt 0.125000 0.000000
vt 0.125000 0.250000
vt 0.625000 0.250000
vt 0.375000 0.250000
vt 0.625000 0.500000
vt 0.375000 0.500000
vt 0.625000 0.250000
vt 0.375000 0.250000
vt 0.625000 0.500000
vt 0.375000 0.500000
vt 0.625000 0.250000
vt 0.375000 0.250000
vt 0.625000 0.500000
vt 0.375000 0.500000
vt 0.625000 0.250000
vt 0.375000 0.250000
vt 0.625000 0.500000
vt 0.375000 0.500000
vt 0.458238 0.250000
vt 0.458238 0.121703
vt 0.625000 0.121703
vt 0.625000 0.250000
vt 0.458238 0.500000
vt 0.458238 0.250000
vt 0.625000 0.250000
vt 0.625000 0.500000
vt 0.458238 0.628297
vt 0.625000 0.628297
vt 0.458238 1.000000
vt 0.458238 0.750000
vt 0.625000 0.750000
vt 0.625000 1.000000
vt 0.625000 0.121703
vt 0.875000 0.121703
vt 0.875000 0.250000
vt 0.125000 0.121703
vt 0.375000 0.121703
vt 0.458238 0.000000
vt 0.625000 0.000000
vt 0.625000 0.000000
vt 0.875000 0.000000
vt 0.375000 0.750000
vt 0.375000 1.000000
vt 0.375000 0.628297
vt 0.375000 0.121703
vt 0.375000 0.000000
vt 0.125000 0.000000
vt 0.375000 0.000000
vt 0.374997 0.000003
vt 0.125005 0.000003
vt 0.374997 0.000003
vt 0.625000 0.250000
vt 0.625000 0.121703
vt 0.458238 0.250000
vt 0.458238 0.000000
vt 0.625000 0.000000
vt 0.458238 0.000000
vt 0.375000 0.121703
vt 0.375000 0.000000
vt 0.374997 0.000003
vt 0.625000 0.250000
vt 0.625000 0.121703
vt 0.458238 0.250000
vt 0.625000 0.000000
vt 0.458238 0.000000
vt 0.375000 0.121703
vt 0.375000 0.000000
vt 0.374997 0.000003
vt 0.375000 0.000000
vt 0.625000 0.000000
vt 0.625000 0.083333
vt 0.375000 0.083333
vt 0.375000 0.250000
vt 0.625000 0.250000
vt 0.625000 0.500000
vt 0.375000 0.500000
vt 0.375000 0.666667
vt 0.625000 0.666667
vt 0.625000 0.750000
vt 0.375000 0.750000
vt 0.625000 1.000000
vt 0.375000 1.000000
vt 0.875000 0.000000
vt 0.875000 0.083333
vt 0.125000 0.000000
vt 0.375000 0.000000
vt 0.375000 0.083333
vt 0.125000 0.083333
vt 0.125000 0.166667
vt 0.375000 0.166667
vt 0.375000 0.250000
vt 0.125000 0.250000
vt 0.625000 0.583333
vt 0.375000 0.583333
vt 0.625000 0.166667
vt 0.875000 0.166667
vt 0.875000 0.250000
vt 0.375000 0.166667
vt 0.125000 0.083333
vt 0.125000 0.166667
vt 0.125000 0.000000
vt 0.125000 0.250000
vn 0.000000 -0.000001 1.000000
vn 0.000000 -0.000000 1.000000
vn 0.000000 0.000000 1.000000
vn 0.000000 -0.000000 1.000000
vn -0.421235 -0.906952 0.000000
vn 0.000000 -1.000000 0.000000
vn 0.000000 -1.000000 0.000000
vn -0.421235 -0.906952 0.000000
vn 0.000000 0.000000 -1.000000
vn 0.000000 0.000000 -1.000000
vn 0.000000 0.000000 -1.000000
vn 0.000000 0.000000 -1.000000
vn 0.000000 1.000000 0.000000
vn 0.000000 1.000000 0.000000
vn 0.000000 1.000000 0.000000
vn 0.000000 1.000000 0.000000
vn 1.000000 0.000000 0.000000
vn 1.000000 0.000000 0.000000
vn 1.000000 0.000000 0.000000
vn 1.000000 0.000000 0.000000
vn -0.700102 -0.714043 0.000000
vn -0.700102 -0.714043 0.000000
vn 0.000000 0.000001 1.000000
vn 0.000000 0.000001 1.000000
vn 1.000000 0.000000 0.000000
vn 1.000000 0.000000 0.000000
vn 0.000000 0.000000 -1.000000
vn 0.000000 0.000000 -1.000000
vn 0.000000 1.000000 0.000000
vn 0.000000 1.000000 0.000000
vn 0.000000 0.000000 -1.000000
vn 0.000000 0.000000 -1.000000
vn 0.000001 0.000000 1.000000
vn 0.000001 0.000000 1.000000
vn 0.000000 1.000000 0.000000
vn 0.000000 1.000000 0.000000
vn 0.000000 0.000000 1.000000
vn -0.712863 -0.701303 0.000000
vn -0.712863 -0.701303 0.000000
vn -0.712863 -0.701303 0.000000
vn -0.712863 -0.701303 0.000000
vn 0.000000 0.000000 -1.000000
vn 0.000000 0.000000 1.000000
vn 0.000000 0.000000 1.000000
vn 0.000000 0.000000 1.000000
vn 0.000000 0.000000 1.000000
vn 0.000000 0.000000 1.000000
vn 0.000000 0.000000 1.000000
vn 0.000000 0.000000 1.000000
vn 0.000000 0.000000 1.000000
vn 0.000000 0.000000 1.000000
vn 0.000000 0.000000 1.000000
vn 0.000000 0.000000 1.000000
vn 0.000000 0.000000 1.000000
vn 0.000000 0.000000 1.000000
vn 0.000000 0.000000 1.000000
vn 0.000000 0.000000 1.000000
vn 0.000000 0.000000 1.000000
vn -1.000000 0.000000 0.000000
vn -1.000000 0.000000 0.000000
vn -1.000000 0.000000 0.000000
vn -1.000000 0.000000 0.000000
vn 0.000000 1.000000 0.000000
vn 0.000000 1.000000 0.000000
vn 0.000000 1.000000 0.000000
vn 0.000000 1.000000 0.000000
vn 0.000000 -1.000000 0.000000
vn 0.000000 -1.000000 0.000000
vn 0.000000 -1.000000 0.000000
vn 0.000000 -1.000000 0.000000
vn -1.000000 0.000000 0.000000
vn -1.000000 0.000000 0.000000
vn 0.700102 0.714043 0.000000
vn 0.700102 0.714043 0.000000
vn 0.706165 0.708048 0.000000
vn 0.706165 0.708048 0.000000
vn 0.000000 -1.000000 0.000000
vn 0.000000 -1.000000 0.000000
vn 0.712861 0.701305 0.000000
vn 0.712861 0.701305 0.000000
vn 0.000000 -1.000000 0.000000
vn 0.000000 -1.000000 0.000000
vn 0.899182 0.000000 0.437576
vn 0.899182 0.000000 0.437576
vn 0.899183 0.000000 0.437573
vn 0.899183 0.000000 0.437573
vn 0.000000 -0.899185 0.437569
vn 0.000000 -0.899185 0.437569
vn 0.000000 -0.899185 0.437569
vn 0.000000 -0.899185 0.437569
vn 0.000000 0.899187 0.437565
vn 0.000000 0.899187 0.437565
vn 0.000000 0.899185 0.437569
vn 0.000000 0.899185 0.437569
vn 0.899180 0.000000 0.437579
vn 0.899180 0.000000 0.437579
vn -0.629526 -0.642059 0.437557
vn -0.629526 -0.642059 0.437557
vn -0.634917 -0.636720 0.437571
vn -0.634917 -0.636720 0.437571
vn 0.000000 0.899189 0.437561
vn 0.000000 0.899189 0.437561
vn -0.640998 -0.630608 0.437555
vn -0.640998 -0.630608 0.437555
vn 0.000000 0.899189 0.437560
vn 0.000000 0.899189 0.437560
vn 0.000000 1.000000 0.000000
vn 0.000000 1.000000 0.000000
vn 0.000000 1.000000 0.000000
vn 0.000000 1.000000 0.000000
vn 0.070940 0.018183 0.997315
vn -0.070940 0.018183 0.997315
vn -0.070940 -0.018183 0.997315
vn 0.070940 -0.018183 0.997315
vn 0.000000 -1.000000 0.000000
vn 0.000000 -1.000000 0.000000
vn 0.000000 -1.000000 0.000000
vn 0.000000 -1.000000 0.000000
vn 0.000000 0.000000 -1.000000
vn 0.000000 0.000000 -1.000000
vn 0.000000 0.000000 -1.000000
vn 0.000000 0.000000 -1.000000
vn -1.000000 0.000000 0.000000
vn -1.000000 0.000000 0.000000
vn -1.000000 0.000000 0.000000
vn -1.000000 0.000000 0.000000
vn 1.000000 0.000000 0.000000
vn 1.000000 0.000000 0.000000
vn 1.000000 0.000000 0.000000
vn 1.000000 0.000000 0.000000
vn 0.000000 0.000000 0.000000
vn 0.000000 0.000000 0.000000
vn 0.000000 0.000000 0.000000
vn 0.000000 0.000000 0.000000
vn 0.000000 0.000000 0.000000
vn 0.000000 0.000000 0.000000
vn 0.000000 0.000000 0.000000
vn 0.000000 0.000000 0.000000
vn 0.000000 0.000000 0.000000
vn 0.000000 0.000000 0.000000
vn 0.000000 0.000000 0.000000
vn 0.000000 0.000000 0.000000
vn 0.000000 0.000000 0.000000
vn 0.000000 0.000000 0.000000
vn 0.000000 0.000000 0.000000
vn 0.000000 0.000000 0.000000
vn 0.000003 0.000000 1.000000
vn 0.000005 0.000000 1.000000
vn 0.000005 0.000000 1.000000
vn 0.000003 0.000000 1.000000
vn 0.000005 0.000000 1.000000
vn 0.000005 0.000000 1.000000
vn 0.000003 0.000000 1.000000
vn 0.000003 0.000000 1.000000
vn 0.000000 0.000000 0.000000
vn 0.000000 0.000000 0.000000
vn 0.000000 0.000000 0.000000
vn 0.000000 0.000000 0.000000
vn 0.000000 0.000000 0.000000
vn 0.000000 0.000000 0.000000
vn 0.000000 0.000000 0.000000
vn 0.000000 0.000000 0.000000
vn 0.000000 0.000000 0.000000
vn 0.000000 0.000000 0.000000
vn 0.000000 0.000000 0.000000
vn 0.000000 0.000000 0.000000
vn 0.000000 0.000000 0.000000
vn 0.000000 0.000000 0.000000
vn 0.000000 0.000000 0.000000
vn 0.000000 0.000000 0.000000
vn 0.000000 -1.000000 0.000000
vn 0.000000 -1.000000 0.000000
vn 0.000000 -1.000000 0.000000
vn 0.000000 -1.000000 0.000000
vn 1.000000 0.000000 0.000000
vn 1.000000 0.000000 0.000000
vn 1.000000 0.000000 0.000000
vn 1.000000 0.000000 0.000000
vn 0.000000 1.000000 0.000000
vn 0.000000 1.000000 0.000000
vn 0.000000 1.000000 0.000000
vn 0.000000 1.000000 0.000000
vn -1.000000 0.000000 0.000000
vn -1.000000 0.000000 0.000000
vn -1.000000 0.000000 0.000000
vn -1.000000 0.000000 0.000000
vn 0.871531 0.223389 0.436498
vn -0.871530 0.223389 0.436500
vn -0.871531 -0.223388 0.436498
vn 0.871532 -0.223388 0.436497
vn 0.000000 0.000001 1.000000
vn 0.000000 0.000000 1.000000
vn 0.000000 -0.000000 1.000000
vn 0.000000 0.000000 1.000000
vn -0.421237 0.906951 0.000000
vn -0.421237 0.906951 0.000000
vn 0.000000 1.000000 0.000000
vn 0.000000 1.000000 0.000000
vn 0.000000 0.000000 -1.000000
vn 0.000000 0.000000 -1.000000
vn 0.000000 0.000000 -1.000000
vn 0.000000 0.000000 -1.000000
vn 0.000000 -1.000000 0.000000
vn 0.000000 -1.000000 0.000000
vn 0.000000 -1.000000 0.000000
vn 0.000000 -1.000000 0.000000
vn 1.000000 0.000000 0.000000
vn 1.000000 0.000000 0.000000
vn 1.000000 0.000000 0.000000
vn 1.000000 0.000000 0.000000
vn -0.700104 0.714041 0.000000
vn -0.700104 0.714041 0.000000
vn 0.000000 -0.000001 1.000000
vn 0.000000 -0.000001 1.000000
vn 1.000000 0.000000 0.000000
vn 1.000000 0.000000 0.000000
vn 0.000000 0.000000 -1.000000
vn 0.000000 0.000000 -1.000000
vn 0.000000 -1.000000 0.000000
vn 0.000000 -1.000000 0.000000
vn 0.000000 0.000000 -1.000000
vn 0.000000 0.000000 -1.000000
vn 0.000000 -0.000000 1.000000
vn 0.000000 -0.000000 1.000000
vn 0.000000 -1.000000 0.000000
vn 0.000000 -1.000000 0.000000
vn 0.000000 0.000000 1.000000
vn -0.712861 0.701306 -0.000000
vn -0.712861 0.701306 -0.000000
vn -0.712860 0.701306 -0.000000
vn -0.712860 0.701306 -0.000000
vn 0.000000 0.000000 -1.000000
vn -0.000012 0.000000 1.000000
vn 0.000000 0.000000 1.000000
vn 0.000000 0.000000 1.000000
vn -0.000012 0.000000 1.000000
vn 0.000000 0.000000 1.000000
vn 0.000000 0.000000 1.000000
vn 0.000000 0.000000 1.000000
vn -0.000011 0.000000 1.000000
vn -0.000011 0.000000 1.000000
vn 0.000000 0.000000 1.000000
vn 0.000013 0.000000 1.000000
vn 0.000013 0.000000 1.000000
vn 0.000000 0.000000 1.000000
vn 0.000000 0.000000 1.000000
vn 0.000015 0.000000 1.000000
vn 0.000015 0.000000 1.000000
vn -1.000000 0.000000 0.000000
vn -1.000000 0.000000 0.000000
vn -1.000000 0.000000 0.000000
vn -1.000000 0.000000 0.000000
vn 0.000000 -1.000000 0.000000
vn 0.000000 -1.000000 0.000000
vn 0.000000 -1.000000 0.000000
vn 0.000000 -1.000000 0.000000
vn 0.000000 1.000000 0.000000
vn 0.000000 1.000000 0.000000
vn 0.000000 1.000000 0.000000
vn 0.000000 1.000000 0.000000
vn -1.000000 0.000000 0.000000
vn -1.000000 0.000000 0.000000
vn 0.700102 -0.714043 0.000000
vn 0.706165 -0.708048 0.000000
vn 0.706165 -0.708048 0.000000
vn 0.700102 -0.714043 0.000000
vn 0.000000 1.000000 0.000000
vn 0.000000 1.000000 0.000000
vn 0.712861 -0.701305 0.000000
vn 0.712861 -0.701305 0.000000
vn 0.000000 1.000000 0.000000
vn 0.000000 1.000000 0.000000
vn 0.899185 0.000000 0.437569
vn 0.899186 0.000000 0.437567
vn 0.899186 0.000000 0.437567
vn 0.899185 0.000000 0.437569
vn 0.000000 0.899187 0.437565
vn 0.000000 0.899187 0.437565
vn 0.000000 0.899187 0.437565
vn 0.000000 0.899187 0.437565
vn 0.000000 -0.899187 0.437565
vn 0.000000 -0.899187 0.437565
vn 0.000000 -0.899187 0.437565
vn 0.000000 -0.899187 0.437565
vn 0.899183 0.000000 0.437573
vn 0.899183 0.000000 0.437572
vn -0.629523 0.642060 0.437561
vn -0.634917 0.636717 0.437575
vn -0.634917 0.636717 0.437575
vn -0.629523 0.642060 0.437561
vn 0.000000 -0.899187 0.437565
vn 0.000000 -0.899187 0.437565
vn -0.641003 0.630600 0.437560
vn -0.641003 0.630600 0.437560
vn 0.000000 -0.899187 0.437565
vn 0.000000 -0.899187 0.437565
vn 0.000000 0.000000 1.000000
vn 0.000000 0.000000 1.000000
vn 0.000000 0.000000 1.000000
vn 0.000000 0.000000 1.000000
vn 0.000000 1.000000 0.000000
vn 0.000000 1.000000 0.000000
vn 0.000000 1.000000 0.000000
vn 0.000000 1.000000 0.000000
vn 0.000000 0.000000 -1.000000
vn 0.000000 0.000000 -1.000000
vn 0.000000 0.000000 -1.000000
vn 0.000000 0.000000 -1.000000
vn 0.000000 -1.000000 0.000000
vn 0.000000 -1.000000 0.000000
vn 0.000000 -1.000000 0.000000
vn 0.000000 -1.000000 0.000000
vn 1.000000 0.000000 0.000000
vn 1.000000 0.000000 0.000000
vn 1.000000 0.000000 0.000000
vn 1.000000 0.000000 0.000000
vn -0.859251 0.511554 0.000000
vn -0.859251 0.511554 0.000000
vn -0.859251 0.511554 0.000000
vn -0.859251 0.511554 0.000000
vn -0.859251 -0.511554 0.000000
vn -0.859251 -0.511554 0.000000
vn -0.859251 -0.511554 0.000000
vn -0.859251 -0.511554 0.000000
vn 0.000000 0.000000 -1.000000
vn 0.000000 0.000000 -1.000000
vn 0.000000 0.000000 -1.000000
vn 0.000000 0.000000 -1.000000
vn 1.000000 0.000000 0.000000
vn 1.000000 0.000000 0.000000
vn 1.000000 0.000000 0.000000
vn 1.000000 0.000000 0.000000
vn 0.000000 0.000000 1.000000
vn 0.000000 0.000000 1.000000
vn 0.000000 0.000000 1.000000
vn 0.000000 0.000000 1.000000
vn -1.000000 0.000000 0.000000
vn -1.000000 0.000000 0.000000
vn -1.000000 0.000000 0.000000
vn -1.000000 0.000000 0.000000
vn 0.000000 -1.000000 0.000000
vn 0.000000 -1.000000 0.000000
vn 0.000000 0.000000 1.000000
vn 0.000000 0.000000 1.000000
vn 0.000000 1.000000 0.000000
vn 0.000000 1.000000 0.000000
vn 0.000000 1.000000 0.000000
vn 0.000000 1.000000 0.000000
vn 0.000000 0.000000 -1.000000
vn 0.000000 0.000000 -1.000000
vn 0.000000 -1.000000 0.000000
vn 0.000000 -1.000000 0.000000
vn 0.000000 -1.000000 0.000000
vn 0.000000 -1.000000 0.000000
vn 0.000000 0.000000 1.000000
vn 0.000000 0.000000 1.000000
vn 0.000000 1.000000 0.000000
vn 0.000000 1.000000 0.000000
vn 0.000000 0.000000 -1.000000
vn 0.000000 0.000000 -1.000000
s 1
g pCube195
usemtl initialShadingGroup
f 34/1/1 37/4/2 36/3/3 35/2/4
s 2
f 14/5/5 4/8/6 3/7/7 15/6/8
s 3
f 13/9/9 9/10/10 4/8/11 14/5/12
s 4
f 11/11/13 2/14/14 6/13/15 12/12/16
s 5
f 8/15/17 3/7/18 4/17/19 9/16/20
s 2
f 14/5/5 15/6/8 7/19/21 10/18/22
s 1
f 35/2/4 36/3/3 39/21/23 38/20/24
s 5
f 2/22/25 8/15/17 9/16/20 6/23/26
s 3
f 12/12/27 6/13/28 9/10/10 13/9/9
s 4
f 5/24/29 1/25/30 11/11/13 12/12/16
s 3
f 10/26/31 5/24/32 12/12/27 13/9/9
f 14/5/12 10/26/31 13/9/9
s 1
f 40/27/33 34/1/1 35/2/4
f 41/28/34 40/27/33 35/2/4 38/20/24
s 4
f 5/29/29 16/32/35 17/31/36 1/30/30
s 1
f 41/28/34 42/33/37 40/27/33
s off
f 7/19/38 17/31/39 16/32/40 10/18/41
s 3
f 10/18/31 16/32/42 5/29/32
s 6
f 8/15/43 19/35/44 20/34/45 3/7/46
f 3/7/46 20/34/45 18/36/47 15/6/48
f 11/37/49 21/39/50 22/38/51 2/22/52
f 2/22/52 22/38/51 19/35/44 8/15/43
f 15/6/48 18/36/47 23/40/53 7/19/54
f 1/30/55 24/41/56 21/39/50 11/37/49
f 7/19/54 23/40/53 25/42/57 17/31/58
f 17/31/58 25/42/57 24/41/56 1/30/55
s 8
f 19/35/59 27/44/60 28/43/61 20/34/62
s off
f 20/34/63 28/43/64 26/45/65 18/36/66
s 9
f 21/39/67 29/47/68 30/46/69 22/38/70
s 8
f 22/38/71 30/46/72 27/44/60 19/35/59
s 10
f 18/36/73 26/45/74 31/48/75 23/40/76
s 9
f 24/41/77 32/49/78 29/47/68 21/39/67
s 10
f 23/40/76 31/48/75 33/50/79 25/42/80
s 9
f 25/42/81 33/50/82 32/49/78 24/41/77
s 11
f 27/44/83 36/3/84 37/4/85 28/43/86
s off
f 28/43/87 37/4/88 34/1/89 26/45/90
s 12
f 29/47/91 38/20/92 39/21/93 30/46/94
s 11
f 30/46/95 39/21/96 36/3/84 27/44/83
s 13
f 26/45/97 34/1/98 40/27/99 31/48/100
s 12
f 32/49/101 41/28/102 38/20/92 29/47/91
s 13
f 31/48/100 40/27/99 42/33/103 33/50/104
s 12
f 33/50/105 42/33/106 41/28/102 32/49/101
s off
f 43/51/107 44/52/108 46/53/109 45/54/110
s 14
f 67/55/111 68/56/112 69/57/113 70/58/114
s off
f 47/59/115 48/60/116 50/61/117 49/62/118
f 49/62/119 50/61/120 44/63/121 43/64/122
f 44/52/123 50/65/124 48/66/125 46/53/126
f 49/67/127 43/51/128 45/54/129 47/68/130
f 45/54/131 46/53/132 52/69/133 51/70/134
f 46/53/135 48/60/136 53/71/137 52/69/138
f 48/60/139 47/59/140 54/72/141 53/71/142
f 47/59/143 45/54/144 51/70/145 54/72/146
s 15
f 51/70/147 52/69/148 56/73/149 55/74/150
f 52/69/148 53/71/151 57/75/152 56/73/149
f 53/71/151 54/72/153 58/76/154 57/75/152
f 54/72/153 51/70/147 55/74/150 58/76/154
s off
f 55/74/155 56/73/156 60/77/157 59/78/158
f 56/73/159 57/75/160 61/79/161 60/77/162
f 57/75/163 58/76/164 62/80/165 61/79/166
f 58/76/167 55/74/168 59/78/169 62/80/170
f 59/78/171 60/77/172 64/81/173 63/82/174
f 60/77/175 61/79/176 65/83/177 64/81/178
f 61/79/179 62/80/180 66/84/181 65/83/182
f 62/80/183 59/78/184 63/82/185 66/84/186
s 14
f 63/82/187 64/81/188 68/56/112 67/55/111
f 64/81/188 65/83/189 69/57/113 68/56/112
f 65/83/189 66/84/190 70/58/114 69/57/113
f 66/84/190 63/82/187 67/55/111 70/58/114
s 16
f 104/85/191 105/86/192 106/87/193 107/88/194
s 17
f 84/89/195 85/90/196 73/91/197 74/92/198
s 18
f 83/93/199 84/89/200 74/92/201 79/94/202
s 19
f 81/95/203 82/96/204 76/97/205 72/98/206
s 20
f 78/99/207 79/100/208 74/101/209 73/91/210
s 17
f 84/89/195 80/102/211 77/103/212 85/90/196
s 16
f 105/86/192 108/104/213 109/105/214 106/87/193
s 20
f 72/106/215 76/107/216 79/100/208 78/99/207
s 18
f 82/96/217 83/93/199 79/94/202 76/97/218
s 19
f 75/108/219 82/96/204 81/95/203 71/109/220
s 18
f 80/110/221 83/93/199 82/96/217 75/108/222
f 84/89/200 83/93/199 80/110/221
s 16
f 110/111/223 105/86/192 104/85/191
f 111/112/224 108/104/213 105/86/192 110/111/223
s 19
f 75/113/219 71/114/220 87/115/225 86/116/226
s 16
f 111/112/224 110/111/223 112/117/227
s off
f 77/103/228 80/102/229 86/116/230 87/115/231
s 18
f 80/102/221 75/113/222 86/116/232
s 21
f 78/99/233 73/91/234 90/118/235 89/119/236
f 73/91/234 85/90/237 88/120/238 90/118/235
f 81/121/239 72/106/240 92/122/241 91/123/242
f 72/106/240 78/99/233 89/119/236 92/122/241
f 85/90/237 77/103/243 93/124/244 88/120/238
f 71/114/245 81/121/239 91/123/242 94/125/246
f 77/103/243 87/115/247 95/126/248 93/124/244
f 87/115/247 71/114/245 94/125/246 95/126/248
s 22
f 89/119/249 90/118/250 98/127/251 97/128/252
s off
f 90/118/253 88/120/254 96/129/255 98/127/256
s 23
f 91/123/257 92/122/258 100/130/259 99/131/260
s 22
f 92/122/261 89/119/249 97/128/252 100/130/262
s 24
f 88/120/263 93/124/264 101/132/265 96/129/266
s 23
f 94/125/267 91/123/257 99/131/260 102/133/268
s 24
f 93/124/264 95/126/269 103/134/270 101/132/265
s 23
f 95/126/271 94/125/267 102/133/268 103/134/272
s 25
f 97/128/273 98/127/274 107/88/275 106/87/276
s off
f 98/127/277 96/129/278 104/85/279 107/88/280
s 26
f 99/131/281 100/130/282 109/105/283 108/104/284
s 25
f 100/130/285 97/128/273 106/87/276 109/105/286
s 27
f 96/129/287 101/132/288 110/111/289 104/85/290
s 26
f 102/133/291 99/131/281 108/104/284 111/112/292
s 27
f 101/132/288 103/134/293 112/117/294 110/111/289
s 26
f 103/134/295 102/133/291 111/112/292 112/117/296
s 28
f 113/135/297 114/136/298 128/137/299 125/138/300
s 29
f 115/139/301 116/140/302 118/141/303 117/142/304
s 30
f 126/143/305 127/144/306 120/145/307 119/146/308
s 31
f 119/146/309 120/145/310 114/147/311 113/148/312
s 32
f 114/136/313 120/149/314 127/150/315 128/137/316
s off
f 129/151/317 130/152/318 131/153/319 132/154/320
f 134/155/321 133/156/322 135/157/323 136/158/324
s 30
f 117/142/325 118/141/326 123/159/327 122/160/328
s 32
f 124/161/329 123/162/330 118/163/331 116/140/332
s 28
f 121/164/333 124/161/334 116/140/335 115/139/336
s off
f 126/165/337 125/138/338 121/164/339 122/166/340
s 30
f 122/160/328 123/159/327 127/144/306 126/143/305
s 32
f 128/137/316 127/150/315 123/162/330 124/161/329
s 28
f 125/138/300 128/137/299 124/161/334 121/164/333
s 31
f 119/167/309 113/135/312 130/152/341 129/151/342
s 28
f 113/135/297 125/138/300 131/153/343 130/152/344
s off
f 125/138/345 126/165/346 132/154/347 131/153/348
s 30
f 126/165/305 119/167/308 129/151/349 132/154/350
s off
f 122/166/351 121/164/352 133/156/353 134/155/354
s 28
f 121/164/333 115/139/336 135/157/355 133/156/356
s 29
f 115/139/301 117/168/304 136/158/357 135/157/358
s 30
f 117/168/325 122/166/328 134/155/359 136/158/360
