# This file uses centimeters as units for non-parametric coordinates.

mtllib IndentWallSmall.mtl
g default
v -0.670055 33.039181 -1.839939
v -0.670055 33.039181 1.839938
v -0.670055 -0.438836 1.839938
v -0.670055 -0.438836 -1.839939
v 11.272526 33.039181 1.839938
v 11.272526 -0.438836 1.839938
v 11.272526 -0.438836 -1.839939
v 11.272526 33.039181 -1.839939
v 11.272526 33.039181 1.839938
v -0.670055 33.039181 1.839938
v -0.670055 -0.438836 1.839938
v 11.272526 -0.438836 1.839938
v 10.872525 32.639179 1.839938
v -0.270054 32.639179 1.839938
v -0.270054 -0.038836 1.839938
v 10.872525 -0.038836 1.839938
v 10.872525 32.639179 2.156165
v -0.270054 32.639179 2.156165
v -0.270054 -0.038836 2.156165
v 10.872525 -0.038836 2.156165
v 10.272526 32.039181 2.156165
v 0.329945 32.039181 2.156165
v 0.329945 0.561164 2.156165
v 10.272526 0.561164 2.156165
v 10.272526 32.039181 1.551978
v 0.329945 32.039181 1.551978
v 0.329945 0.561164 1.551978
v 10.272526 0.561164 1.551978
v 9.972523 31.739182 2.199450
v 0.629948 31.739182 2.199450
v 0.629948 0.861164 2.199450
v 9.972523 0.861164 2.199450
vt 0.729558 0.375361
vt 0.733474 0.033238
vt 0.771080 0.033668
vt 0.767164 0.375791
vt 0.500935 0.063412
vt 0.637566 0.077927
vt 0.642784 0.486887
vt 0.499271 0.505703
vt 0.724244 0.839529
vt 0.761850 0.839960
vt 0.760452 0.962005
vt 0.722847 0.961575
vt 0.765766 0.497837
vt 0.728161 0.497406
vt 0.465839 0.029717
vt 0.675396 0.052316
vt 0.675395 0.052462
vt 0.465850 0.029733
vt 0.677328 0.510997
vt 0.677321 0.510994
vt 0.464729 0.540497
vt 0.464745 0.540484
vt 0.668933 0.057601
vt 0.471933 0.036921
vt 0.669626 0.505793
vt 0.470820 0.533261
vt 0.664953 0.059787
vt 0.475518 0.039696
vt 0.666965 0.503252
vt 0.474347 0.530430
vt 0.655453 0.067240
vt 0.484530 0.050132
vt 0.656084 0.495972
vt 0.483360 0.519787
vt 0.647627 0.070952
vt 0.491599 0.055014
vt 0.651148 0.490613
vt 0.490072 0.514351
vn -1.000000 0.000000 0.000000
vn -1.000000 0.000000 0.000000
vn -1.000000 0.000000 0.000000
vn -1.000000 0.000000 0.000000
vn 0.000000 0.000000 1.000000
vn 0.000000 0.000000 1.000000
vn 0.000000 0.000000 1.000000
vn 0.000000 0.000000 1.000000
vn 0.000000 -1.000000 0.000000
vn 0.000000 -1.000000 0.000000
vn 0.000000 -1.000000 0.000000
vn 0.000000 -1.000000 0.000000
vn 0.000000 1.000000 0.000000
vn 0.000000 1.000000 0.000000
vn 0.000000 1.000000 0.000000
vn 0.000000 1.000000 0.000000
vn 1.000000 0.000000 0.000000
vn 1.000000 0.000000 0.000000
vn 1.000000 0.000000 0.000000
vn 1.000000 0.000000 0.000000
vn 0.000000 0.000000 0.000000
vn 0.000000 0.000000 0.000000
vn 0.000000 0.000000 0.000000
vn 0.000000 0.000000 0.000000
vn 0.000000 0.000000 0.000000
vn 0.000000 0.000000 0.000000
vn 0.000000 0.000000 0.000000
vn 0.000000 0.000000 0.000000
vn 0.000000 0.000000 0.000000
vn 0.000000 0.000000 0.000000
vn 0.000000 0.000000 0.000000
vn 0.000000 0.000000 0.000000
vn 0.000000 0.000000 0.000000
vn 0.000000 0.000000 0.000000
vn 0.000000 0.000000 0.000000
vn 0.000000 0.000000 0.000000
vn -0.000003 0.000000 1.000000
vn 0.000005 0.000000 1.000000
vn -0.000003 0.000000 1.000000
vn 0.000005 0.000000 1.000000
vn 0.000005 0.000000 1.000000
vn 0.000005 0.000000 1.000000
vn 0.000005 0.000000 1.000000
vn 0.000005 0.000000 1.000000
vn 0.000005 0.000000 1.000000
vn -0.000003 0.000000 1.000000
vn 0.000005 0.000000 1.000000
vn -0.000003 0.000000 1.000000
vn -0.000003 0.000000 1.000000
vn -0.000003 0.000000 1.000000
vn -0.000003 0.000000 1.000000
vn -0.000003 0.000000 1.000000
vn 0.000000 1.000000 0.000000
vn 0.000000 1.000000 0.000000
vn 0.000000 1.000000 0.000000
vn 0.000000 1.000000 0.000000
vn -1.000000 0.000000 0.000000
vn -1.000000 0.000000 0.000000
vn -1.000000 0.000000 0.000000
vn -1.000000 0.000000 0.000000
vn 0.000000 -1.000000 0.000000
vn 0.000000 -1.000000 0.000000
vn 0.000000 -1.000000 0.000000
vn 0.000000 -1.000000 0.000000
vn 1.000000 0.000000 0.000000
vn 1.000000 0.000000 0.000000
vn 1.000000 0.000000 0.000000
vn 1.000000 0.000000 0.000000
vn 0.000005 0.000000 1.000000
vn -0.000004 0.000000 1.000000
vn 0.000005 0.000000 1.000000
vn -0.000004 0.000000 1.000000
vn -0.000004 0.000000 1.000000
vn -0.000004 0.000000 1.000000
vn -0.000004 0.000000 1.000000
vn -0.000004 0.000000 1.000000
vn -0.000004 0.000000 1.000000
vn 0.000005 0.000000 1.000000
vn -0.000004 0.000000 1.000000
vn 0.000005 0.000000 1.000000
vn 0.000005 0.000000 1.000000
vn 0.000005 0.000000 1.000000
vn 0.000005 0.000000 1.000000
vn 0.000005 0.000000 1.000000
vn 0.000000 -1.000000 0.000000
vn 0.000000 -1.000000 0.000000
vn 0.000000 -1.000000 0.000000
vn 0.000000 -1.000000 0.000000
vn 1.000000 0.000000 0.000000
vn 1.000000 0.000000 0.000000
vn 1.000000 0.000000 0.000000
vn 1.000000 0.000000 0.000000
vn 0.000000 1.000000 0.000000
vn 0.000000 1.000000 0.000000
vn 0.000000 1.000000 0.000000
vn 0.000000 1.000000 0.000000
vn -1.000000 0.000000 0.000000
vn -1.000000 0.000000 0.000000
vn -1.000000 0.000000 0.000000
vn -1.000000 0.000000 0.000000
vn 0.000000 0.907336 0.420407
vn 0.000000 0.907336 0.420407
vn 0.000000 0.907336 0.420407
vn 0.000000 0.907336 0.420407
vn -0.907334 0.000000 0.420410
vn -0.907334 0.000000 0.420410
vn -0.907334 0.000000 0.420410
vn -0.907334 0.000000 0.420410
vn 0.000000 -0.907336 0.420406
vn 0.000000 -0.907336 0.420406
vn 0.000000 -0.907336 0.420406
vn 0.000000 -0.907336 0.420406
vn 0.907334 0.000000 0.420410
vn 0.907334 0.000000 0.420410
vn 0.907334 0.000000 0.420410
vn 0.907334 0.000000 0.420410
s 1
g IndentWallSmall:polySurface65
usemtl IndentWallSmall:initialShadingGroup
f 1/1/1 4/2/2 2/4/3
f 2/4/3 4/2/2 3/3/4
s 2
f 29/5/5 30/6/6 32/8/7
f 32/8/7 30/6/6 31/7/8
s 3
f 7/9/9 6/10/10 4/12/11
f 4/12/11 6/10/10 3/11/12
s 4
f 5/13/13 8/14/14 2/4/15
f 2/4/15 8/14/14 1/1/16
s 5
f 6/10/17 7/9/18 5/13/19
f 5/13/19 7/9/18 8/14/20
s 6
f 9/18/21 5/15/22 10/17/23
f 5/15/22 2/16/24 10/17/23
s 7
f 10/17/25 2/16/26 11/20/27
f 2/16/26 3/19/28 11/20/27
s 8
f 11/20/29 3/19/30 12/22/31
f 3/19/30 6/21/32 12/22/31
s 9
f 12/22/33 6/21/34 9/18/35
f 6/21/34 5/15/36 9/18/35
s 10
f 9/18/37 10/17/38 13/24/39
f 13/24/39 10/17/38 14/23/40
s 11
f 10/17/41 11/20/42 14/23/43
f 14/23/43 11/20/42 15/25/44
s 12
f 11/20/45 12/22/46 15/25/47
f 15/25/47 12/22/46 16/26/48
s 13
f 12/22/49 9/18/50 16/26/51
f 16/26/51 9/18/50 13/24/52
s 14
f 13/24/53 14/23/54 17/28/55
f 17/28/55 14/23/54 18/27/56
s 15
f 14/23/57 15/25/58 18/27/59
f 18/27/59 15/25/58 19/29/60
s 16
f 15/25/61 16/26/62 19/29/63
f 19/29/63 16/26/62 20/30/64
s 17
f 16/26/65 13/24/66 20/30/67
f 20/30/67 13/24/66 17/28/68
s 18
f 17/28/69 18/27/70 21/32/71
f 21/32/71 18/27/70 22/31/72
s 19
f 18/27/73 19/29/74 22/31/75
f 22/31/75 19/29/74 23/33/76
s 20
f 19/29/77 20/30/78 23/33/79
f 23/33/79 20/30/78 24/34/80
s 21
f 20/30/81 17/28/82 24/34/83
f 24/34/83 17/28/82 21/32/84
s 22
f 21/32/85 22/31/86 25/36/87
f 25/36/87 22/31/86 26/35/88
s 23
f 22/31/89 23/33/90 26/35/91
f 26/35/91 23/33/90 27/37/92
s 24
f 23/33/93 24/34/94 27/37/95
f 27/37/95 24/34/94 28/38/96
s 25
f 24/34/97 21/32/98 28/38/99
f 28/38/99 21/32/98 25/36/100
s 26
f 25/36/101 26/35/102 29/5/103
f 29/5/103 26/35/102 30/6/104
s 27
f 26/35/105 27/37/106 30/6/107
f 30/6/107 27/37/106 31/7/108
s 28
f 27/37/109 28/38/110 31/7/111
f 31/7/111 28/38/110 32/8/112
s 29
f 28/38/113 25/36/114 32/8/115
f 32/8/115 25/36/114 29/5/116
g default
v -0.670055 33.039181 -1.839939
v -0.670055 33.039181 1.839938
v -0.670055 -0.438836 1.839938
v -0.670055 -0.438836 -1.839939
v 11.272526 33.039181 1.839938
v 11.272526 -0.438836 1.839938
v 11.272526 -0.438836 -1.839939
v 11.272526 33.039181 -1.839939
v 11.272526 33.039181 1.839938
v -0.670055 33.039181 1.839938
v -0.670055 -0.438836 1.839938
v 11.272526 -0.438836 1.839938
v 10.872525 32.639179 1.839938
v -0.270054 32.639179 1.839938
v -0.270054 -0.038836 1.839938
v 10.872525 -0.038836 1.839938
v 10.872525 32.639179 2.156165
v -0.270054 32.639179 2.156165
v -0.270054 -0.038836 2.156165
v 10.872525 -0.038836 2.156165
v 10.272526 32.039181 2.156165
v 0.329945 32.039181 2.156165
v 0.329945 0.561164 2.156165
v 10.272526 0.561164 2.156165
v 10.272526 32.039181 1.551978
v 0.329945 32.039181 1.551978
v 0.329945 0.561164 1.551978
v 10.272526 0.561164 1.551978
v 9.972523 31.739182 2.199450
v 0.629948 31.739182 2.199450
v 0.629948 0.861164 2.199450
v 9.972523 0.861164 2.199450
vt 0.729558 0.375361
vt 0.733474 0.033238
vt 0.771080 0.033668
vt 0.767164 0.375791
vt 0.500935 0.063412
vt 0.637566 0.077927
vt 0.642784 0.486887
vt 0.499271 0.505703
vt 0.724244 0.839529
vt 0.761850 0.839960
vt 0.760452 0.962005
vt 0.722847 0.961575
vt 0.765766 0.497837
vt 0.728161 0.497406
vt 0.465839 0.029717
vt 0.675396 0.052316
vt 0.675395 0.052462
vt 0.465850 0.029733
vt 0.677328 0.510997
vt 0.677321 0.510994
vt 0.464729 0.540497
vt 0.464745 0.540484
vt 0.668933 0.057601
vt 0.471933 0.036921
vt 0.669626 0.505793
vt 0.470820 0.533261
vt 0.664953 0.059787
vt 0.475518 0.039696
vt 0.666965 0.503252
vt 0.474347 0.530430
vt 0.655453 0.067240
vt 0.484530 0.050132
vt 0.656084 0.495972
vt 0.483360 0.519787
vt 0.647627 0.070952
vt 0.491599 0.055014
vt 0.651148 0.490613
vt 0.490072 0.514351
vn -1.000000 0.000000 0.000000
vn -1.000000 0.000000 0.000000
vn -1.000000 0.000000 0.000000
vn -1.000000 0.000000 0.000000
vn 0.000000 0.000000 1.000000
vn 0.000000 0.000000 1.000000
vn 0.000000 0.000000 1.000000
vn 0.000000 0.000000 1.000000
vn 0.000000 -1.000000 0.000000
vn 0.000000 -1.000000 0.000000
vn 0.000000 -1.000000 0.000000
vn 0.000000 -1.000000 0.000000
vn 0.000000 1.000000 0.000000
vn 0.000000 1.000000 0.000000
vn 0.000000 1.000000 0.000000
vn 0.000000 1.000000 0.000000
vn 1.000000 0.000000 0.000000
vn 1.000000 0.000000 0.000000
vn 1.000000 0.000000 0.000000
vn 1.000000 0.000000 0.000000
vn 0.000000 0.000000 0.000000
vn 0.000000 0.000000 0.000000
vn 0.000000 0.000000 0.000000
vn 0.000000 0.000000 0.000000
vn 0.000000 0.000000 0.000000
vn 0.000000 0.000000 0.000000
vn 0.000000 0.000000 0.000000
vn 0.000000 0.000000 0.000000
vn 0.000000 0.000000 0.000000
vn 0.000000 0.000000 0.000000
vn 0.000000 0.000000 0.000000
vn 0.000000 0.000000 0.000000
vn 0.000000 0.000000 0.000000
vn 0.000000 0.000000 0.000000
vn 0.000000 0.000000 0.000000
vn 0.000000 0.000000 0.000000
vn -0.000003 0.000000 1.000000
vn 0.000005 0.000000 1.000000
vn -0.000003 0.000000 1.000000
vn 0.000005 0.000000 1.000000
vn 0.000005 0.000000 1.000000
vn 0.000005 0.000000 1.000000
vn 0.000005 0.000000 1.000000
vn 0.000005 0.000000 1.000000
vn 0.000005 0.000000 1.000000
vn -0.000003 0.000000 1.000000
vn 0.000005 0.000000 1.000000
vn -0.000003 0.000000 1.000000
vn -0.000003 0.000000 1.000000
vn -0.000003 0.000000 1.000000
vn -0.000003 0.000000 1.000000
vn -0.000003 0.000000 1.000000
vn 0.000000 1.000000 0.000000
vn 0.000000 1.000000 0.000000
vn 0.000000 1.000000 0.000000
vn 0.000000 1.000000 0.000000
vn -1.000000 0.000000 0.000000
vn -1.000000 0.000000 0.000000
vn -1.000000 0.000000 0.000000
vn -1.000000 0.000000 0.000000
vn 0.000000 -1.000000 0.000000
vn 0.000000 -1.000000 0.000000
vn 0.000000 -1.000000 0.000000
vn 0.000000 -1.000000 0.000000
vn 1.000000 0.000000 0.000000
vn 1.000000 0.000000 0.000000
vn 1.000000 0.000000 0.000000
vn 1.000000 0.000000 0.000000
vn 0.000005 0.000000 1.000000
vn -0.000004 0.000000 1.000000
vn 0.000005 0.000000 1.000000
vn -0.000004 0.000000 1.000000
vn -0.000004 0.000000 1.000000
vn -0.000004 0.000000 1.000000
vn -0.000004 0.000000 1.000000
vn -0.000004 0.000000 1.000000
vn -0.000004 0.000000 1.000000
vn 0.000005 0.000000 1.000000
vn -0.000004 0.000000 1.000000
vn 0.000005 0.000000 1.000000
vn 0.000005 0.000000 1.000000
vn 0.000005 0.000000 1.000000
vn 0.000005 0.000000 1.000000
vn 0.000005 0.000000 1.000000
vn 0.000000 -1.000000 0.000000
vn 0.000000 -1.000000 0.000000
vn 0.000000 -1.000000 0.000000
vn 0.000000 -1.000000 0.000000
vn 1.000000 0.000000 0.000000
vn 1.000000 0.000000 0.000000
vn 1.000000 0.000000 0.000000
vn 1.000000 0.000000 0.000000
vn 0.000000 1.000000 0.000000
vn 0.000000 1.000000 0.000000
vn 0.000000 1.000000 0.000000
vn 0.000000 1.000000 0.000000
vn -1.000000 0.000000 0.000000
vn -1.000000 0.000000 0.000000
vn -1.000000 0.000000 0.000000
vn -1.000000 0.000000 0.000000
vn 0.000000 0.907336 0.420407
vn 0.000000 0.907336 0.420407
vn 0.000000 0.907336 0.420407
vn 0.000000 0.907336 0.420407
vn -0.907334 0.000000 0.420410
vn -0.907334 0.000000 0.420410
vn -0.907334 0.000000 0.420410
vn -0.907334 0.000000 0.420410
vn 0.000000 -0.907336 0.420406
vn 0.000000 -0.907336 0.420406
vn 0.000000 -0.907336 0.420406
vn 0.000000 -0.907336 0.420406
vn 0.907334 0.000000 0.420410
vn 0.907334 0.000000 0.420410
vn 0.907334 0.000000 0.420410
vn 0.907334 0.000000 0.420410
s 1
g IndentWallSmall:polySurface65
f 33/39/117 36/40/118 34/42/119
f 34/42/119 36/40/118 35/41/120
s 2
f 61/43/121 62/44/122 64/46/123
f 64/46/123 62/44/122 63/45/124
s 3
f 39/47/125 38/48/126 36/50/127
f 36/50/127 38/48/126 35/49/128
s 4
f 37/51/129 40/52/130 34/42/131
f 34/42/131 40/52/130 33/39/132
s 5
f 38/48/133 39/47/134 37/51/135
f 37/51/135 39/47/134 40/52/136
s 6
f 41/56/137 37/53/138 42/55/139
f 37/53/138 34/54/140 42/55/139
s 7
f 42/55/141 34/54/142 43/58/143
f 34/54/142 35/57/144 43/58/143
s 8
f 43/58/145 35/57/146 44/60/147
f 35/57/146 38/59/148 44/60/147
s 9
f 44/60/149 38/59/150 41/56/151
f 38/59/150 37/53/152 41/56/151
s 10
f 41/56/153 42/55/154 45/62/155
f 45/62/155 42/55/154 46/61/156
s 11
f 42/55/157 43/58/158 46/61/159
f 46/61/159 43/58/158 47/63/160
s 12
f 43/58/161 44/60/162 47/63/163
f 47/63/163 44/60/162 48/64/164
s 13
f 44/60/165 41/56/166 48/64/167
f 48/64/167 41/56/166 45/62/168
s 14
f 45/62/169 46/61/170 49/66/171
f 49/66/171 46/61/170 50/65/172
s 15
f 46/61/173 47/63/174 50/65/175
f 50/65/175 47/63/174 51/67/176
s 16
f 47/63/177 48/64/178 51/67/179
f 51/67/179 48/64/178 52/68/180
s 17
f 48/64/181 45/62/182 52/68/183
f 52/68/183 45/62/182 49/66/184
s 18
f 49/66/185 50/65/186 53/70/187
f 53/70/187 50/65/186 54/69/188
s 19
f 50/65/189 51/67/190 54/69/191
f 54/69/191 51/67/190 55/71/192
s 20
f 51/67/193 52/68/194 55/71/195
f 55/71/195 52/68/194 56/72/196
s 21
f 52/68/197 49/66/198 56/72/199
f 56/72/199 49/66/198 53/70/200
s 22
f 53/70/201 54/69/202 57/74/203
f 57/74/203 54/69/202 58/73/204
s 23
f 54/69/205 55/71/206 58/73/207
f 58/73/207 55/71/206 59/75/208
s 24
f 55/71/209 56/72/210 59/75/211
f 59/75/211 56/72/210 60/76/212
s 25
f 56/72/213 53/70/214 60/76/215
f 60/76/215 53/70/214 57/74/216
s 26
f 57/74/217 58/73/218 61/43/219
f 61/43/219 58/73/218 62/44/220
s 27
f 58/73/221 59/75/222 62/44/223
f 62/44/223 59/75/222 63/45/224
s 28
f 59/75/225 60/76/226 63/45/227
f 63/45/227 60/76/226 64/46/228
s 29
f 60/76/229 57/74/230 64/46/231
f 64/46/231 57/74/230 61/43/232
