# Wavefront Obj file
# 
# verts: 152 uv-s: 248
mtllib PillarBoltedLarge.mtl

g pasted__SupportPillar26
#pivot 0.000000 0.000000 0.000000

v -4.325712 -31.573513 4.257256
v 4.325700 -31.573513 4.257256
v -4.325712 31.573513 4.257256
v 4.325700 31.573513 4.257256
v -4.325712 31.573513 -4.257263
v 4.325700 31.573513 -4.257263
v -4.325712 -31.573513 -4.257263
v 4.325700 -31.573513 -4.257263
v -4.853059 -26.710449 4.776281
v 4.853065 -26.710449 4.776281
v -4.853059 -25.363899 4.776281
v 4.853065 -25.363899 4.776281
v -4.853059 -25.363899 -4.776253
v 4.853065 -25.363899 -4.776253
v -4.853059 -26.710449 -4.776253
v 4.853065 -26.710449 -4.776253
v -3.807950 -25.363899 3.731137
v 3.807921 -25.363899 3.731137
v 3.807921 -25.363899 -3.731144
v -3.807950 -25.363899 -3.731144
v -3.807950 -26.710449 -3.731144
v 3.807921 -26.710449 -3.731144
v 3.807921 -26.710449 3.731137
v -3.807950 -26.710449 3.731137
v -4.853059 -25.489609 4.776281
v 4.853065 -25.489609 4.776281
v 4.853065 -25.489609 -4.776253
v -4.853059 -25.489609 -4.776253
v -4.853059 -26.577000 4.776281
v 4.853065 -26.577000 4.776281
v 4.853065 -26.577000 -4.776253
v -4.853059 -26.577000 -4.776253
v -3.591069 -26.710449 -3.731144
v -4.576677 -26.710449 -4.776253
v -4.576660 -26.577000 -4.776253
v -4.576660 -25.489609 -4.776253
v -4.576677 -25.363899 -4.776253
v -3.591069 -25.363899 -3.731144
v -3.807950 -26.710449 -3.431439
v -4.853059 -26.710449 -4.392599
v -4.853059 -26.577000 -4.392599
v -4.853059 -25.489609 -4.392599
v -4.853059 -25.363899 -4.392599
v -3.807950 -25.363899 -3.431439
v -3.807950 -26.710449 3.466278
v -4.853059 -26.710449 4.437197
v -4.853059 -26.577000 4.437197
v -4.853059 -25.489609 4.437197
v -4.853059 -25.363899 4.437197
v -3.807950 -25.363899 3.466278
v -3.312040 -25.363899 3.731137
v -4.221035 -25.363899 4.776281
v -4.221035 -25.489609 4.776281
v -4.221035 -26.577000 4.776281
v -4.221035 -26.710449 4.776281
v -3.312040 -26.710449 3.731137
v 3.600037 -25.363899 3.731137
v 4.588119 -25.363899 4.776281
v 4.588119 -25.489609 4.776281
v 4.588119 -26.577000 4.776281
v 4.588119 -26.710449 4.776281
v 3.600037 -26.710449 3.731137
v 3.807921 -25.363899 3.391291
v 4.853065 -25.363899 4.341205
v 4.853065 -25.489609 4.341205
v 4.853065 -26.577000 4.341205
v 4.853065 -26.710449 4.341205
v 3.807921 -26.710449 3.391256
v 3.807921 -26.710449 -3.528918
v 4.853065 -26.710449 -4.517381
v 4.853065 -26.577000 -4.517381
v 4.853065 -25.489609 -4.517381
v 4.853065 -25.363899 -4.517381
v 3.807921 -25.363899 -3.528918
v 3.513181 -25.363899 -3.731144
v 4.477456 -25.363899 -4.776253
v 4.477456 -25.489609 -4.776253
v 4.477456 -26.577000 -4.776253
v 4.477456 -26.710449 -4.776253
v 3.513181 -26.710449 -3.731144
v -4.853059 25.363899 4.776281
v 4.853065 25.363899 4.776281
v -4.853059 26.710442 4.776281
v 4.853065 26.710442 4.776281
v -4.853059 26.710442 -4.776253
v 4.853065 26.710442 -4.776253
v -4.853059 25.363899 -4.776253
v 4.853065 25.363899 -4.776253
v -3.807950 26.710442 3.731137
v 3.807921 26.710442 3.731137
v 3.807921 26.710442 -3.731144
v -3.807950 26.710442 -3.731144
v -3.807950 25.363899 -3.731144
v 3.807921 25.363899 -3.731144
v 3.807921 25.363899 3.731137
v -3.807950 25.363899 3.731137
v -4.853059 26.584736 4.776281
v 4.853065 26.584736 4.776281
v 4.853065 26.584736 -4.776253
v -4.853059 26.584736 -4.776253
v -4.853059 25.497349 4.776281
v 4.853065 25.497349 4.776281
v 4.853065 25.497349 -4.776253
v -4.853059 25.497349 -4.776253
v -3.591069 25.363899 -3.731144
v -4.576677 25.363899 -4.776253
v -4.576660 25.497349 -4.776253
v -4.576660 26.584736 -4.776253
v -4.576677 26.710442 -4.776253
v -3.591069 26.710442 -3.731144
v -3.807950 25.363899 -3.431439
v -4.853059 25.363899 -4.392599
v -4.853059 25.497349 -4.392599
v -4.853059 26.584736 -4.392599
v -4.853059 26.710442 -4.392599
v -3.807950 26.710442 -3.431439
v -3.807950 25.363899 3.466278
v -4.853059 25.363899 4.437197
v -4.853059 25.497349 4.437197
v -4.853059 26.584736 4.437197
v -4.853059 26.710442 4.437197
v -3.807950 26.710442 3.466278
v -3.312040 26.710442 3.731137
v -4.221035 26.710442 4.776281
v -4.221035 26.584736 4.776281
v -4.221035 25.497349 4.776281
v -4.221035 25.363899 4.776281
v -3.312040 25.363899 3.731137
v 3.600037 26.710442 3.731137
v 4.588119 26.710442 4.776281
v 4.588119 26.584736 4.776281
v 4.588119 25.497349 4.776281
v 4.588119 25.363899 4.776281
v 3.600037 25.363899 3.731137
v 3.807921 26.710442 3.391291
v 4.853065 26.710442 4.341205
v 4.853065 26.584736 4.341205
v 4.853065 25.497349 4.341205
v 4.853065 25.363899 4.341205
v 3.807921 25.363899 3.391256
v 3.807921 25.363899 -3.528918
v 4.853065 25.363899 -4.517381
v 4.853065 25.497349 -4.517381
v 4.853065 26.584736 -4.517381
v 4.853065 26.710442 -4.517381
v 3.807921 26.710442 -3.528918
v 3.513181 26.710442 -3.731144
v 4.477456 26.710442 -4.776253
v 4.477456 26.584736 -4.776253
v 4.477456 25.497349 -4.776253
v 4.477456 25.363899 -4.776253
v 3.513181 25.363899 -3.731144
# 152 positions

vt 0.990000 0.855736
vt 0.990000 0.990000
vt 0.010000 0.990000
vt 0.010000 0.855736
vt 0.780862 0.405509
vt 0.780862 0.271244
vt 0.648723 0.271244
vt 0.648723 0.405509
vt 0.010000 0.842371
vt 0.010000 0.708107
vt 0.990000 0.708107
vt 0.990000 0.842371
vt 0.780862 0.123615
vt 0.780862 0.257879
vt 0.648723 0.257879
vt 0.648723 0.123615
vt 0.010000 0.562602
vt 0.010000 0.694741
vt 0.990000 0.694741
vt 0.990000 0.562602
vt 0.990000 0.417985
vt 0.990000 0.550125
vt 0.010000 0.550125
vt 0.010000 0.417985
vt 0.156521 0.221917
vt 0.156521 0.223868
vt 0.160633 0.223868
vt 0.160633 0.221917
vt 0.319037 0.240864
vt 0.319037 0.242815
vt 0.178523 0.242815
vt 0.178523 0.240864
vt 0.518978 0.101318
vt 0.517027 0.101318
vt 0.517027 0.238798
vt 0.518978 0.238798
vt 0.533172 0.094566
vt 0.533172 0.100520
vt 0.531222 0.100520
vt 0.531222 0.094566
vt 0.142029 0.274322
vt 0.158249 0.258988
vt 0.158249 0.254876
vt 0.142029 0.271096
vt 0.136755 0.271096
vt 0.151497 0.254876
vt 0.014017 0.254876
vt 0.029358 0.271096
vt 0.026219 0.275670
vt 0.010000 0.260705
vt 0.010000 0.401219
vt 0.026219 0.385923
vt 0.010000 0.405509
vt 0.015954 0.405509
vt 0.030871 0.389289
vt 0.026219 0.389289
vt 0.301710 0.274461
vt 0.317930 0.259165
vt 0.317930 0.399679
vt 0.301710 0.384714
vt 0.298572 0.389289
vt 0.313912 0.405509
vt 0.176433 0.405509
vt 0.191175 0.389289
vt 0.169681 0.405509
vt 0.169681 0.401397
vt 0.185901 0.386062
vt 0.185901 0.389289
vt 0.297059 0.271095
vt 0.311976 0.254876
vt 0.317930 0.254876
vt 0.301710 0.271095
vt 0.156521 0.240744
vt 0.160633 0.240744
vt 0.500152 0.101318
vt 0.500152 0.238798
vt 0.319037 0.223988
vt 0.178523 0.223988
vt 0.550048 0.094566
vt 0.550048 0.100520
vt 0.156521 0.242815
vt 0.160633 0.242815
vt 0.498080 0.101318
vt 0.498080 0.238798
vt 0.319037 0.221917
vt 0.178523 0.221917
vt 0.552119 0.094566
vt 0.552119 0.100520
vt 0.323326 0.223988
vt 0.323326 0.221917
vt 0.323326 0.240864
vt 0.323326 0.242815
vt 0.190011 0.271095
vt 0.174943 0.254876
vt 0.552119 0.237553
vt 0.550048 0.237553
vt 0.533172 0.237553
vt 0.531222 0.237553
vt 0.152987 0.405509
vt 0.137918 0.389289
vt 0.169681 0.254876
vt 0.185901 0.271095
vt 0.552119 0.242815
vt 0.550048 0.242815
vt 0.533172 0.242815
vt 0.531222 0.242815
vt 0.158249 0.405509
vt 0.142029 0.389289
vt 0.158249 0.395700
vt 0.142029 0.381593
vt 0.010000 0.223868
vt 0.019809 0.223868
vt 0.019809 0.221917
vt 0.010000 0.221917
vt 0.010000 0.240744
vt 0.019809 0.240744
vt 0.010000 0.242815
vt 0.019809 0.242815
vt 0.185901 0.278792
vt 0.169681 0.264685
vt 0.517027 0.094566
vt 0.518978 0.094566
vt 0.500152 0.094566
vt 0.498080 0.094566
vt 0.317930 0.405509
vt 0.301710 0.389289
vt 0.498080 0.242815
vt 0.500152 0.242815
vt 0.517027 0.242815
vt 0.518978 0.242815
vt 0.010000 0.254876
vt 0.026219 0.271096
vt 0.172694 0.242815
vt 0.172694 0.240864
vt 0.172694 0.223988
vt 0.172694 0.221917
vt 0.481908 0.221918
vt 0.481908 0.223869
vt 0.486019 0.223869
vt 0.486019 0.221918
vt 0.156343 0.207723
vt 0.156343 0.209674
vt 0.015829 0.209674
vt 0.015829 0.207723
vt 0.814236 0.264012
vt 0.812286 0.264012
vt 0.812286 0.401491
vt 0.814236 0.401491
vt 0.795290 0.097579
vt 0.795290 0.103533
vt 0.793339 0.103533
vt 0.793339 0.097579
vt 0.461390 0.274322
vt 0.477610 0.258988
vt 0.477610 0.254876
vt 0.461390 0.271096
vt 0.456116 0.271096
vt 0.470859 0.254876
vt 0.333379 0.254876
vt 0.348719 0.271096
vt 0.345581 0.275670
vt 0.329361 0.260705
vt 0.329361 0.401219
vt 0.345581 0.385923
vt 0.329361 0.405509
vt 0.335315 0.405509
vt 0.350232 0.389289
vt 0.345581 0.389289
vt 0.621071 0.274461
vt 0.637291 0.259165
vt 0.637291 0.399679
vt 0.621071 0.384714
vt 0.617933 0.389289
vt 0.633274 0.405509
vt 0.495794 0.405509
vt 0.510537 0.389289
vt 0.489042 0.405509
vt 0.489042 0.401397
vt 0.505262 0.386062
vt 0.505262 0.389289
vt 0.616420 0.271095
vt 0.631337 0.254876
vt 0.637291 0.254876
vt 0.621071 0.271095
vt 0.481908 0.240744
vt 0.486019 0.240744
vt 0.795410 0.264012
vt 0.795410 0.401491
vt 0.156343 0.190847
vt 0.015829 0.190847
vt 0.812165 0.097579
vt 0.812165 0.103533
vt 0.481908 0.242815
vt 0.486019 0.242815
vt 0.793339 0.264012
vt 0.793339 0.401491
vt 0.156343 0.188776
vt 0.015829 0.188776
vt 0.814236 0.097579
vt 0.814236 0.103533
vt 0.160633 0.190847
vt 0.160633 0.188776
vt 0.160633 0.207723
vt 0.160633 0.209674
vt 0.509372 0.271095
vt 0.494304 0.254876
vt 0.814236 0.240566
vt 0.812165 0.240566
vt 0.795290 0.240566
vt 0.793339 0.240566
vt 0.472348 0.405509
vt 0.457280 0.389289
vt 0.489042 0.254876
vt 0.505262 0.271095
vt 0.814236 0.245828
vt 0.812165 0.245828
vt 0.795290 0.245828
vt 0.793339 0.245828
vt 0.477610 0.405509
vt 0.461390 0.389289
vt 0.477610 0.395700
vt 0.461390 0.381593
vt 0.335387 0.223869
vt 0.345195 0.223869
vt 0.345195 0.221918
vt 0.335387 0.221918
vt 0.335387 0.240744
vt 0.345195 0.240744
vt 0.335387 0.242815
vt 0.345195 0.242815
vt 0.505262 0.278792
vt 0.489042 0.264685
vt 0.812286 0.257260
vt 0.814236 0.257260
vt 0.795410 0.257260
vt 0.793339 0.257260
vt 0.637291 0.405509
vt 0.621071 0.389289
vt 0.793339 0.405509
vt 0.795410 0.405509
vt 0.812286 0.405509
vt 0.814236 0.405509
vt 0.329361 0.254876
vt 0.345581 0.271096
vt 0.010000 0.209674
vt 0.010000 0.207723
vt 0.010000 0.190847
vt 0.010000 0.188776
# 248 texture coordinates

vn 0.000000 0.000000 1.000000
vn 0.000000 0.000000 1.000000
vn 0.000000 0.000000 1.000000
vn 0.000000 0.000000 1.000000
vn 0.000000 1.000000 0.000000
vn 0.000000 1.000000 0.000000
vn 0.000000 1.000000 0.000000
vn 0.000000 1.000000 0.000000
vn 0.000000 0.000000 -1.000000
vn 0.000000 0.000000 -1.000000
vn 0.000000 0.000000 -1.000000
vn 0.000000 0.000000 -1.000000
vn 0.000000 -1.000000 0.000000
vn 0.000000 -1.000000 0.000000
vn 0.000000 -1.000000 0.000000
vn 0.000000 -1.000000 0.000000
vn 1.000000 0.000000 0.000000
vn 1.000000 0.000000 0.000000
vn 1.000000 0.000000 0.000000
vn 1.000000 0.000000 0.000000
vn -1.000000 0.000000 0.000000
vn -1.000000 0.000000 0.000000
vn -1.000000 0.000000 0.000000
vn -1.000000 0.000000 0.000000
vn 0.000000 0.000000 1.000000
vn 0.000000 0.000000 1.000000
vn 0.000000 0.000000 1.000000
vn 0.000000 0.000000 1.000000
vn 0.000000 0.000000 -1.000000
vn 0.000000 0.000000 -1.000000
vn 0.000000 0.000000 -1.000000
vn 0.000000 0.000000 -1.000000
vn 1.000000 0.000000 0.000000
vn 1.000000 0.000000 0.000000
vn 1.000000 0.000000 0.000000
vn 1.000000 0.000000 0.000000
vn -1.000000 0.000000 0.000000
vn -1.000000 0.000000 0.000000
vn -1.000000 0.000000 0.000000
vn -1.000000 0.000000 0.000000
vn 0.000000 1.000000 0.000000
vn 0.000000 1.000000 0.000000
vn 0.000000 1.000000 0.000000
vn 0.000000 1.000000 0.000000
vn 0.000000 1.000000 0.000000
vn 0.000000 1.000000 0.000000
vn 0.000000 1.000000 0.000000
vn 0.000000 1.000000 0.000000
vn 0.000000 1.000000 0.000000
vn 0.000000 1.000000 0.000000
vn 0.000000 1.000000 0.000000
vn 0.000000 1.000000 0.000000
vn 0.000000 1.000000 0.000000
vn 0.000000 1.000000 0.000000
vn 0.000000 1.000000 0.000000
vn 0.000000 1.000000 0.000000
vn 0.000000 -1.000000 0.000000
vn 0.000000 -1.000000 0.000000
vn 0.000000 -1.000000 0.000000
vn 0.000000 -1.000000 0.000000
vn 0.000000 -1.000000 0.000000
vn 0.000000 -1.000000 0.000000
vn 0.000000 -1.000000 0.000000
vn 0.000000 -1.000000 0.000000
vn 0.000000 -1.000000 0.000000
vn 0.000000 -1.000000 0.000000
vn 0.000000 -1.000000 0.000000
vn 0.000000 -1.000000 0.000000
vn 0.000000 -1.000000 0.000000
vn 0.000000 -1.000000 0.000000
vn 0.000000 -1.000000 0.000000
vn 0.000000 -1.000000 0.000000
vn 0.000000 0.000000 1.000000
vn 0.000000 0.000000 1.000000
vn 1.000000 0.000000 0.000000
vn 1.000000 0.000000 0.000000
vn 0.000000 0.000000 -1.000000
vn 0.000000 0.000000 -1.000000
vn -1.000000 0.000000 0.000000
vn -1.000000 0.000000 0.000000
vn 0.000000 0.000000 1.000000
vn 0.000000 0.000000 1.000000
vn 1.000000 0.000000 0.000000
vn 1.000000 0.000000 0.000000
vn 0.000000 0.000000 -1.000000
vn 0.000000 0.000000 -1.000000
vn -1.000000 0.000000 0.000000
vn -1.000000 0.000000 0.000000
vn 0.000000 0.000000 -1.000000
vn 0.000000 0.000000 -1.000000
vn 0.000000 0.000000 -1.000000
vn 0.000000 0.000000 -1.000000
vn 0.000000 -1.000000 0.000000
vn 0.000000 -1.000000 0.000000
vn -1.000000 0.000000 0.000000
vn -1.000000 0.000000 0.000000
vn -1.000000 0.000000 0.000000
vn -1.000000 0.000000 0.000000
vn 0.000000 1.000000 0.000000
vn 0.000000 1.000000 0.000000
vn 0.000000 -1.000000 0.000000
vn 0.000000 -1.000000 0.000000
vn -1.000000 0.000000 0.000000
vn -1.000000 0.000000 0.000000
vn -1.000000 0.000000 0.000000
vn -1.000000 0.000000 0.000000
vn 0.000000 1.000000 0.000000
vn 0.000000 1.000000 0.000000
vn 0.000000 1.000000 0.000000
vn 0.000000 1.000000 0.000000
vn 0.000000 0.000000 1.000000
vn 0.000000 0.000000 1.000000
vn 0.000000 0.000000 1.000000
vn 0.000000 0.000000 1.000000
vn 0.000000 0.000000 1.000000
vn 0.000000 0.000000 1.000000
vn 0.000000 0.000000 1.000000
vn 0.000000 0.000000 1.000000
vn 0.000000 -1.000000 0.000000
vn 0.000000 -1.000000 0.000000
vn 1.000000 0.000000 0.000000
vn 1.000000 0.000000 0.000000
vn 1.000000 0.000000 0.000000
vn 1.000000 0.000000 0.000000
vn 0.000000 -1.000000 0.000000
vn 0.000000 -1.000000 0.000000
vn 1.000000 0.000000 0.000000
vn 1.000000 0.000000 0.000000
vn 1.000000 0.000000 0.000000
vn 1.000000 0.000000 0.000000
vn 0.000000 1.000000 0.000000
vn 0.000000 1.000000 0.000000
vn 0.000000 0.000000 -1.000000
vn 0.000000 0.000000 -1.000000
vn 0.000000 0.000000 -1.000000
vn 0.000000 0.000000 -1.000000
vn 0.000000 0.000000 1.000000
vn 0.000000 0.000000 1.000000
vn 0.000000 0.000000 1.000000
vn 0.000000 0.000000 1.000000
vn 0.000000 0.000000 -1.000000
vn 0.000000 0.000000 -1.000000
vn 0.000000 0.000000 -1.000000
vn 0.000000 0.000000 -1.000000
vn 1.000000 0.000000 0.000000
vn 1.000000 0.000000 0.000000
vn 1.000000 0.000000 0.000000
vn 1.000000 0.000000 0.000000
vn -1.000000 0.000000 0.000000
vn -1.000000 0.000000 0.000000
vn -1.000000 0.000000 0.000000
vn -1.000000 0.000000 0.000000
vn 0.000000 1.000000 0.000000
vn 0.000000 1.000000 0.000000
vn 0.000000 1.000000 0.000000
vn 0.000000 1.000000 0.000000
vn 0.000000 1.000000 0.000000
vn 0.000000 1.000000 0.000000
vn 0.000000 1.000000 0.000000
vn 0.000000 1.000000 0.000000
vn 0.000000 1.000000 0.000000
vn 0.000000 1.000000 0.000000
vn 0.000000 1.000000 0.000000
vn 0.000000 1.000000 0.000000
vn 0.000000 1.000000 0.000000
vn 0.000000 1.000000 0.000000
vn 0.000000 1.000000 0.000000
vn 0.000000 1.000000 0.000000
vn 0.000000 -1.000000 0.000000
vn 0.000000 -1.000000 0.000000
vn 0.000000 -1.000000 0.000000
vn 0.000000 -1.000000 0.000000
vn 0.000000 -1.000000 0.000000
vn 0.000000 -1.000000 0.000000
vn 0.000000 -1.000000 0.000000
vn 0.000000 -1.000000 0.000000
vn 0.000000 -1.000000 0.000000
vn 0.000000 -1.000000 0.000000
vn 0.000000 -1.000000 0.000000
vn 0.000000 -1.000000 0.000000
vn 0.000000 -1.000000 0.000000
vn 0.000000 -1.000000 0.000000
vn 0.000000 -1.000000 0.000000
vn 0.000000 -1.000000 0.000000
vn 0.000000 0.000000 1.000000
vn 0.000000 0.000000 1.000000
vn 1.000000 0.000000 0.000000
vn 1.000000 0.000000 0.000000
vn 0.000000 0.000000 -1.000000
vn 0.000000 0.000000 -1.000000
vn -1.000000 0.000000 0.000000
vn -1.000000 0.000000 0.000000
vn 0.000000 0.000000 1.000000
vn 0.000000 0.000000 1.000000
vn 1.000000 0.000000 0.000000
vn 1.000000 0.000000 0.000000
vn 0.000000 0.000000 -1.000000
vn 0.000000 0.000000 -1.000000
vn -1.000000 0.000000 0.000000
vn -1.000000 0.000000 0.000000
vn 0.000000 0.000000 -1.000000
vn 0.000000 0.000000 -1.000000
vn 0.000000 0.000000 -1.000000
vn 0.000000 0.000000 -1.000000
vn 0.000000 -1.000000 0.000000
vn 0.000000 -1.000000 0.000000
vn -1.000000 0.000000 0.000000
vn -1.000000 0.000000 0.000000
vn -1.000000 0.000000 0.000000
vn -1.000000 0.000000 0.000000
vn 0.000000 1.000000 0.000000
vn 0.000000 1.000000 0.000000
vn 0.000000 -1.000000 0.000000
vn 0.000000 -1.000000 0.000000
vn -1.000000 0.000000 0.000000
vn -1.000000 0.000000 0.000000
vn -1.000000 0.000000 0.000000
vn -1.000000 0.000000 0.000000
vn 0.000000 1.000000 0.000000
vn 0.000000 1.000000 0.000000
vn 0.000000 1.000000 0.000000
vn 0.000000 1.000000 0.000000
vn 0.000000 0.000000 1.000000
vn 0.000000 0.000000 1.000000
vn 0.000000 0.000000 1.000000
vn 0.000000 0.000000 1.000000
vn 0.000000 0.000000 1.000000
vn 0.000000 0.000000 1.000000
vn 0.000000 0.000000 1.000000
vn 0.000000 0.000000 1.000000
vn 0.000000 -1.000000 0.000000
vn 0.000000 -1.000000 0.000000
vn 1.000000 0.000000 0.000000
vn 1.000000 0.000000 0.000000
vn 1.000000 0.000000 0.000000
vn 1.000000 0.000000 0.000000
vn 0.000000 -1.000000 0.000000
vn 0.000000 -1.000000 0.000000
vn 1.000000 0.000000 0.000000
vn 1.000000 0.000000 0.000000
vn 1.000000 0.000000 0.000000
vn 1.000000 0.000000 0.000000
vn 0.000000 1.000000 0.000000
vn 0.000000 1.000000 0.000000
vn 0.000000 0.000000 -1.000000
vn 0.000000 0.000000 -1.000000
vn 0.000000 0.000000 -1.000000
vn 0.000000 0.000000 -1.000000
# 248 normals

usemtl pasted__pasted__phong1SG
s 1
f 1/1/1 2/2/2 4/3/3 3/4/4
s 2
f 3/5/5 4/6/6 6/7/7 5/8/8
s 3
f 5/9/9 6/10/10 8/11/11 7/12/12
s 4
f 7/13/13 8/14/14 2/15/15 1/16/16
s 5
f 2/17/17 8/18/18 6/19/19 4/20/20
s 6
f 7/21/21 1/22/22 3/23/23 5/24/24
s 7
f 58/25/25 59/26/26 26/27/27 12/28/28
f 59/26/26 60/73/73 30/74/74 26/27/27
f 60/73/73 61/81/81 10/82/82 30/74/74
f 25/111/111 53/112/112 52/113/113 11/114/114
f 29/115/115 54/116/116 53/112/112 25/111/111
f 9/117/117 55/118/118 54/116/116 29/115/115
f 52/113/113 53/112/112 59/26/26 58/25/25
f 53/112/112 54/116/116 60/73/73 59/26/26
f 54/116/116 55/118/118 61/81/81 60/73/73
s 8
f 36/29/29 37/30/30 76/31/31 77/32/32
f 35/77/77 36/29/29 77/32/32 78/78/78
f 34/85/85 35/77/77 78/78/78 79/86/86
f 32/89/89 35/77/77 34/85/85 15/90/90
f 28/91/91 36/29/29 35/77/77 32/89/89
f 13/92/92 37/30/30 36/29/29 28/91/91
f 77/32/32 76/31/31 14/133/133 27/134/134
f 78/78/78 77/32/32 27/134/134 31/135/135
f 79/86/86 78/78/78 31/135/135 16/136/136
s 9
f 64/33/33 65/34/34 72/35/35 73/36/36
f 65/34/34 66/75/75 71/76/76 72/35/35
f 66/75/75 67/83/83 70/84/84 71/76/76
f 26/121/121 65/34/34 64/33/33 12/122/122
f 30/123/123 66/75/75 65/34/34 26/121/121
f 10/124/124 67/83/83 66/75/75 30/123/123
f 71/76/76 70/84/84 16/127/127 31/128/128
f 72/35/35 71/76/76 31/128/128 27/129/129
f 73/36/36 72/35/35 27/129/129 14/130/130
s 10
f 28/37/37 42/38/38 43/39/39 13/40/40
f 32/79/79 41/80/80 42/38/38 28/37/37
f 15/87/87 40/88/88 41/80/80 32/79/79
f 41/80/80 40/88/88 46/95/95 47/96/96
f 42/38/38 41/80/80 47/96/96 48/97/97
f 43/39/39 42/38/38 48/97/97 49/98/98
f 47/96/96 46/95/95 9/103/103 29/104/104
f 48/97/97 47/96/96 29/104/104 25/105/105
f 49/98/98 48/97/97 25/105/105 11/106/106
s 11
f 57/41/41 58/42/42 12/43/43 18/44/44
f 63/45/45 64/46/46 73/47/47 74/48/48
f 75/49/49 76/50/50 37/51/51 38/52/52
f 13/53/53 43/54/54 44/55/55 20/56/56
f 38/52/52 37/51/51 13/53/53 20/56/56
f 44/55/55 43/54/54 49/99/99 50/100/100
f 50/100/100 49/99/99 11/107/107 17/108/108
f 11/107/107 52/109/109 51/110/110 17/108/108
f 51/110/110 52/109/109 58/42/42 57/41/41
f 12/43/43 64/46/46 63/45/45 18/44/44
f 74/48/48 73/47/47 14/131/131 19/132/132
f 14/131/131 76/50/50 75/49/49 19/132/132
s 12
f 33/57/57 34/58/58 79/59/59 80/60/60
f 69/61/61 70/62/62 67/63/63 68/64/64
f 10/65/65 61/66/66 62/67/67 23/68/68
f 39/69/69 40/70/70 15/71/71 21/72/72
f 15/71/71 34/58/58 33/57/57 21/72/72
f 45/93/93 46/94/94 40/70/70 39/69/69
f 9/101/101 46/94/94 45/93/93 24/102/102
f 56/119/119 55/120/120 9/101/101 24/102/102
f 62/67/67 61/66/66 55/120/120 56/119/119
f 68/64/64 67/63/63 10/65/65 23/68/68
f 16/125/125 70/62/62 69/61/61 22/126/126
f 80/60/60 79/59/59 16/125/125 22/126/126
s 13
f 130/137/137 131/138/138 98/139/139 84/140/140
f 131/138/138 132/185/185 102/186/186 98/139/139
f 132/185/185 133/193/193 82/194/194 102/186/186
f 97/223/223 125/224/224 124/225/225 83/226/226
f 101/227/227 126/228/228 125/224/224 97/223/223
f 81/229/229 127/230/230 126/228/228 101/227/227
f 124/225/225 125/224/224 131/138/138 130/137/137
f 125/224/224 126/228/228 132/185/185 131/138/138
f 126/228/228 127/230/230 133/193/193 132/185/185
s 14
f 108/141/141 109/142/142 148/143/143 149/144/144
f 107/189/189 108/141/141 149/144/144 150/190/190
f 106/197/197 107/189/189 150/190/190 151/198/198
f 104/201/201 107/189/189 106/197/197 87/202/202
f 100/203/203 108/141/141 107/189/189 104/201/201
f 85/204/204 109/142/142 108/141/141 100/203/203
f 149/144/144 148/143/143 86/245/245 99/246/246
f 150/190/190 149/144/144 99/246/246 103/247/247
f 151/198/198 150/190/190 103/247/247 88/248/248
s 15
f 136/145/145 137/146/146 144/147/147 145/148/148
f 137/146/146 138/187/187 143/188/188 144/147/147
f 138/187/187 139/195/195 142/196/196 143/188/188
f 98/233/233 137/146/146 136/145/145 84/234/234
f 102/235/235 138/187/187 137/146/146 98/233/233
f 82/236/236 139/195/195 138/187/187 102/235/235
f 143/188/188 142/196/196 88/239/239 103/240/240
f 144/147/147 143/188/188 103/240/240 99/241/241
f 145/148/148 144/147/147 99/241/241 86/242/242
s 16
f 100/149/149 114/150/150 115/151/151 85/152/152
f 104/191/191 113/192/192 114/150/150 100/149/149
f 87/199/199 112/200/200 113/192/192 104/191/191
f 113/192/192 112/200/200 118/207/207 119/208/208
f 114/150/150 113/192/192 119/208/208 120/209/209
f 115/151/151 114/150/150 120/209/209 121/210/210
f 119/208/208 118/207/207 81/215/215 101/216/216
f 120/209/209 119/208/208 101/216/216 97/217/217
f 121/210/210 120/209/209 97/217/217 83/218/218
s 17
f 129/153/153 130/154/154 84/155/155 90/156/156
f 135/157/157 136/158/158 145/159/159 146/160/160
f 147/161/161 148/162/162 109/163/163 110/164/164
f 85/165/165 115/166/166 116/167/167 92/168/168
f 110/164/164 109/163/163 85/165/165 92/168/168
f 116/167/167 115/166/166 121/211/211 122/212/212
f 122/212/212 121/211/211 83/219/219 89/220/220
f 83/219/219 124/221/221 123/222/222 89/220/220
f 123/222/222 124/221/221 130/154/154 129/153/153
f 84/155/155 136/158/158 135/157/157 90/156/156
f 146/160/160 145/159/159 86/243/243 91/244/244
f 86/243/243 148/162/162 147/161/161 91/244/244
s 18
f 105/169/169 106/170/170 151/171/171 152/172/172
f 141/173/173 142/174/174 139/175/175 140/176/176
f 82/177/177 133/178/178 134/179/179 95/180/180
f 111/181/181 112/182/182 87/183/183 93/184/184
f 87/183/183 106/170/170 105/169/169 93/184/184
f 117/205/205 118/206/206 112/182/182 111/181/181
f 81/213/213 118/206/206 117/205/205 96/214/214
f 128/231/231 127/232/232 81/213/213 96/214/214
f 134/179/179 133/178/178 127/232/232 128/231/231
f 140/176/176 139/175/175 82/177/177 95/180/180
f 88/237/237 142/174/174 141/173/173 94/238/238
f 152/172/172 151/171/171 88/237/237 94/238/238

# 126 faces
