# Wavefront Obj file
# 
# verts: 152 uv-s: 248
mtllib PillarBoltedSmall.mtl

g pasted__SupportPillar27
#pivot 0.000000 0.000000 0.000000

v -2.340580 0.003866 2.303540
v 2.340574 0.003866 2.303540
v -2.340580 34.171814 2.303540
v 2.340574 34.171814 2.303540
v -2.340580 34.171814 -2.303544
v 2.340574 34.171814 -2.303544
v -2.340580 0.003866 -2.303544
v 2.340574 0.003866 -2.303544
v -2.625921 2.635201 2.584377
v 2.625923 2.635201 2.584377
v -2.625921 3.363798 2.584377
v 2.625923 3.363798 2.584377
v -2.625921 3.363798 -2.584362
v 2.625923 3.363798 -2.584362
v -2.625921 2.635201 -2.584362
v 2.625923 2.635201 -2.584362
v -2.060427 3.363798 2.018864
v 2.060411 3.363798 2.018864
v 2.060411 3.363798 -2.018868
v -2.060427 3.363798 -2.018868
v -2.060427 2.635201 -2.018868
v 2.060411 2.635201 -2.018868
v 2.060411 2.635201 2.018864
v -2.060427 2.635201 2.018864
v -2.625921 3.295779 2.584377
v 2.625923 3.295779 2.584377
v 2.625923 3.295779 -2.584362
v -2.625921 3.295779 -2.584362
v -2.625921 2.707410 2.584377
v 2.625923 2.707410 2.584377
v 2.625923 2.707410 -2.584362
v -2.625921 2.707410 -2.584362
v -1.943076 2.635201 -2.018868
v -2.476374 2.635201 -2.584362
v -2.476365 2.707410 -2.584362
v -2.476365 3.295779 -2.584362
v -2.476374 3.363798 -2.584362
v -1.943076 3.363798 -2.018868
v -2.060427 2.635201 -1.856702
v -2.625921 2.635201 -2.376772
v -2.625921 2.707410 -2.376772
v -2.625921 3.295779 -2.376772
v -2.625921 3.363798 -2.376772
v -2.060427 3.363798 -1.856702
v -2.060427 2.635201 1.875553
v -2.625921 2.635201 2.400903
v -2.625921 2.707410 2.400903
v -2.625921 3.295779 2.400903
v -2.625921 3.363798 2.400903
v -2.060427 3.363798 1.875553
v -1.792097 3.363798 2.018864
v -2.283941 3.363798 2.584377
v -2.283941 3.295779 2.584377
v -2.283941 2.707410 2.584377
v -2.283941 2.635201 2.584377
v -1.792097 2.635201 2.018864
v 1.947928 3.363798 2.018864
v 2.482565 3.363798 2.584377
v 2.482565 3.295779 2.584377
v 2.482565 2.707410 2.584377
v 2.482565 2.635201 2.584377
v 1.947928 2.635201 2.018864
v 2.060411 3.363798 1.834979
v 2.625923 3.363798 2.348964
v 2.625923 3.295779 2.348964
v 2.625923 2.707410 2.348964
v 2.625923 2.635201 2.348964
v 2.060411 2.635201 1.834960
v 2.060411 2.635201 -1.909447
v 2.625923 2.635201 -2.444290
v 2.625923 2.707410 -2.444290
v 2.625923 3.295779 -2.444290
v 2.625923 3.363798 -2.444290
v 2.060411 3.363798 -1.909447
v 1.900932 3.363798 -2.018868
v 2.422687 3.363798 -2.584362
v 2.422687 3.295779 -2.584362
v 2.422687 2.707410 -2.584362
v 2.422687 2.635201 -2.584362
v 1.900932 2.635201 -2.018868
v -2.625921 30.811882 2.584377
v 2.625923 30.811882 2.584377
v -2.625921 31.540476 2.584377
v 2.625923 31.540476 2.584377
v -2.625921 31.540476 -2.584362
v 2.625923 31.540476 -2.584362
v -2.625921 30.811882 -2.584362
v 2.625923 30.811882 -2.584362
v -2.060427 31.540476 2.018864
v 2.060411 31.540476 2.018864
v 2.060411 31.540476 -2.018868
v -2.060427 31.540476 -2.018868
v -2.060427 30.811882 -2.018868
v 2.060411 30.811882 -2.018868
v 2.060411 30.811882 2.018864
v -2.060427 30.811882 2.018864
v -2.625921 31.472460 2.584377
v 2.625923 31.472460 2.584377
v 2.625923 31.472460 -2.584362
v -2.625921 31.472460 -2.584362
v -2.625921 30.884087 2.584377
v 2.625923 30.884087 2.584377
v 2.625923 30.884087 -2.584362
v -2.625921 30.884087 -2.584362
v -1.943076 30.811882 -2.018868
v -2.476374 30.811882 -2.584362
v -2.476365 30.884087 -2.584362
v -2.476365 31.472460 -2.584362
v -2.476374 31.540476 -2.584362
v -1.943076 31.540476 -2.018868
v -2.060427 30.811882 -1.856702
v -2.625921 30.811882 -2.376772
v -2.625921 30.884087 -2.376772
v -2.625921 31.472460 -2.376772
v -2.625921 31.540476 -2.376772
v -2.060427 31.540476 -1.856702
v -2.060427 30.811882 1.875553
v -2.625921 30.811882 2.400903
v -2.625921 30.884087 2.400903
v -2.625921 31.472460 2.400903
v -2.625921 31.540476 2.400903
v -2.060427 31.540476 1.875553
v -1.792097 31.540476 2.018864
v -2.283941 31.540476 2.584377
v -2.283941 31.472460 2.584377
v -2.283941 30.884087 2.584377
v -2.283941 30.811882 2.584377
v -1.792097 30.811882 2.018864
v 1.947928 31.540476 2.018864
v 2.482565 31.540476 2.584377
v 2.482565 31.472460 2.584377
v 2.482565 30.884087 2.584377
v 2.482565 30.811882 2.584377
v 1.947928 30.811882 2.018864
v 2.060411 31.540476 1.834979
v 2.625923 31.540476 2.348964
v 2.625923 31.472460 2.348964
v 2.625923 30.884087 2.348964
v 2.625923 30.811882 2.348964
v 2.060411 30.811882 1.834960
v 2.060411 30.811882 -1.909447
v 2.625923 30.811882 -2.444290
v 2.625923 30.884087 -2.444290
v 2.625923 31.472460 -2.444290
v 2.625923 31.540476 -2.444290
v 2.060411 31.540476 -1.909447
v 1.900932 31.540476 -2.018868
v 2.422687 31.540476 -2.584362
v 2.422687 31.472460 -2.584362
v 2.422687 30.884087 -2.584362
v 2.422687 30.811882 -2.584362
v 1.900932 30.811882 -2.018868
# 152 positions

vt 0.010000 0.990000
vt 0.010000 0.855736
vt 0.990000 0.855736
vt 0.990000 0.990000
vt 0.666859 0.402377
vt 0.666859 0.268113
vt 0.798999 0.268113
vt 0.798999 0.402377
vt 0.010000 0.841444
vt 0.010000 0.707180
vt 0.990000 0.707180
vt 0.990000 0.841444
vt 0.802300 0.253911
vt 0.668036 0.253911
vt 0.668036 0.121771
vt 0.802300 0.121771
vt 0.010000 0.692887
vt 0.010000 0.560748
vt 0.990000 0.560748
vt 0.990000 0.692887
vt 0.010000 0.547632
vt 0.010000 0.415493
vt 0.990000 0.415493
vt 0.990000 0.547632
vt 0.550595 0.208693
vt 0.550595 0.206743
vt 0.554707 0.206743
vt 0.554707 0.208693
vt 0.504100 0.222760
vt 0.504100 0.220809
vt 0.644614 0.220808
vt 0.644614 0.222759
vt 0.089687 0.241706
vt 0.089687 0.239755
vt 0.227167 0.239756
vt 0.227167 0.241707
vt 0.392945 0.219458
vt 0.386991 0.219458
vt 0.386991 0.217507
vt 0.392945 0.217507
vt 0.029482 0.385849
vt 0.014149 0.402068
vt 0.010038 0.402073
vt 0.026256 0.385846
vt 0.026252 0.380572
vt 0.010043 0.395323
vt 0.010000 0.257844
vt 0.026225 0.273177
vt 0.030800 0.270044
vt 0.015835 0.253821
vt 0.156362 0.253840
vt 0.141061 0.270059
vt 0.160652 0.253845
vt 0.160653 0.259798
vt 0.144430 0.274708
vt 0.144427 0.270056
vt 0.195846 0.270040
vt 0.180549 0.253821
vt 0.321066 0.253824
vt 0.306102 0.270044
vt 0.310677 0.273182
vt 0.326895 0.257841
vt 0.326920 0.395319
vt 0.310698 0.380578
vt 0.326920 0.402071
vt 0.322808 0.402072
vt 0.307474 0.385851
vt 0.310700 0.385852
vt 0.192482 0.274690
vt 0.176259 0.259777
vt 0.176259 0.253823
vt 0.192480 0.270039
vt 0.550595 0.189867
vt 0.554707 0.189867
vt 0.089686 0.222879
vt 0.227167 0.222880
vt 0.504098 0.239636
vt 0.644614 0.239635
vt 0.392944 0.236334
vt 0.386990 0.236334
vt 0.550595 0.187796
vt 0.554707 0.187796
vt 0.089686 0.220808
vt 0.227167 0.220809
vt 0.504098 0.241707
vt 0.644614 0.241706
vt 0.392944 0.238405
vt 0.386990 0.238405
vt 0.499809 0.239635
vt 0.499809 0.241706
vt 0.499811 0.222759
vt 0.499811 0.220808
vt 0.192507 0.381738
vt 0.176291 0.396810
vt 0.249958 0.238405
vt 0.249958 0.236334
vt 0.249958 0.219458
vt 0.249958 0.217507
vt 0.160652 0.396834
vt 0.144436 0.381760
vt 0.176291 0.402072
vt 0.192508 0.385849
vt 0.244695 0.238405
vt 0.244695 0.236334
vt 0.244695 0.219458
vt 0.244695 0.217507
vt 0.160653 0.402096
vt 0.144438 0.385870
vt 0.150847 0.402092
vt 0.136743 0.385869
vt 0.404074 0.206743
vt 0.413882 0.206743
vt 0.413882 0.208694
vt 0.404074 0.208694
vt 0.404074 0.189867
vt 0.413883 0.189867
vt 0.404075 0.187796
vt 0.413883 0.187796
vt 0.200204 0.385850
vt 0.186098 0.402069
vt 0.082935 0.239756
vt 0.082935 0.241707
vt 0.082934 0.222880
vt 0.082933 0.220809
vt 0.326895 0.253824
vt 0.310676 0.270044
vt 0.231184 0.220809
vt 0.231184 0.222880
vt 0.231184 0.239756
vt 0.231184 0.241707
vt 0.010002 0.253827
vt 0.026227 0.270038
vt 0.650443 0.220808
vt 0.650443 0.222759
vt 0.650442 0.239635
vt 0.650442 0.241706
vt 0.091265 0.154783
vt 0.091265 0.156734
vt 0.087153 0.156734
vt 0.087153 0.154783
vt 0.256505 0.156734
vt 0.256504 0.154783
vt 0.397019 0.154783
vt 0.397019 0.156734
vt 0.089687 0.208693
vt 0.089687 0.206743
vt 0.227167 0.206742
vt 0.227167 0.208693
vt 0.833362 0.402377
vt 0.833362 0.396423
vt 0.835313 0.396423
vt 0.835313 0.402377
vt 0.356654 0.270002
vt 0.340435 0.254669
vt 0.340430 0.250558
vt 0.356655 0.266776
vt 0.361931 0.266772
vt 0.347181 0.250563
vt 0.484658 0.250520
vt 0.469326 0.266744
vt 0.472458 0.271319
vt 0.488681 0.256354
vt 0.488662 0.396881
vt 0.472443 0.381581
vt 0.488658 0.401172
vt 0.482704 0.401173
vt 0.467795 0.384950
vt 0.472446 0.384947
vt 0.522669 0.270040
vt 0.507373 0.253821
vt 0.647890 0.253824
vt 0.632925 0.270044
vt 0.637501 0.273182
vt 0.653719 0.257841
vt 0.653744 0.395319
vt 0.637522 0.380578
vt 0.653744 0.402071
vt 0.649632 0.402072
vt 0.634297 0.385851
vt 0.637523 0.385852
vt 0.519305 0.274690
vt 0.503083 0.259777
vt 0.503083 0.253823
vt 0.519304 0.270039
vt 0.091265 0.173610
vt 0.087153 0.173610
vt 0.089687 0.189867
vt 0.227166 0.189867
vt 0.256507 0.173610
vt 0.397020 0.173610
vt 0.816486 0.402377
vt 0.816486 0.396423
vt 0.091265 0.175681
vt 0.087153 0.175681
vt 0.089687 0.187796
vt 0.227166 0.187796
vt 0.256507 0.175681
vt 0.397020 0.175681
vt 0.814415 0.402377
vt 0.814415 0.396423
vt 0.252218 0.173611
vt 0.252218 0.175682
vt 0.252216 0.156735
vt 0.252215 0.154785
vt 0.519331 0.381738
vt 0.503115 0.396810
vt 0.814415 0.259391
vt 0.816486 0.259391
vt 0.833362 0.259391
vt 0.835313 0.259391
vt 0.345669 0.401171
vt 0.360741 0.384956
vt 0.503115 0.402072
vt 0.519332 0.385849
vt 0.814416 0.254128
vt 0.816486 0.254128
vt 0.833362 0.254128
vt 0.835313 0.254128
vt 0.340406 0.401173
vt 0.356631 0.384957
vt 0.340411 0.391367
vt 0.356633 0.377262
vt 0.237785 0.156734
vt 0.227976 0.156735
vt 0.227976 0.154785
vt 0.237785 0.154783
vt 0.237786 0.173610
vt 0.227978 0.173611
vt 0.237786 0.175681
vt 0.227978 0.175682
vt 0.527028 0.385850
vt 0.512922 0.402069
vt 0.082935 0.206743
vt 0.082935 0.208693
vt 0.082935 0.189867
vt 0.082935 0.187796
vt 0.653719 0.253824
vt 0.637499 0.270044
vt 0.231184 0.187796
vt 0.231184 0.189867
vt 0.231184 0.206742
vt 0.231184 0.208693
vt 0.488675 0.250522
vt 0.472464 0.266746
vt 0.402848 0.154783
vt 0.402849 0.156734
vt 0.402849 0.173610
vt 0.402849 0.175681
# 248 texture coordinates

vn 0.000000 0.000000 1.000000
vn 0.000000 0.000000 1.000000
vn 0.000000 0.000000 1.000000
vn 0.000000 0.000000 1.000000
vn 0.000000 1.000000 0.000000
vn 0.000000 1.000000 0.000000
vn 0.000000 1.000000 0.000000
vn 0.000000 1.000000 0.000000
vn 0.000000 0.000000 -1.000000
vn 0.000000 0.000000 -1.000000
vn 0.000000 0.000000 -1.000000
vn 0.000000 0.000000 -1.000000
vn 0.000000 -1.000000 0.000000
vn 0.000000 -1.000000 0.000000
vn 0.000000 -1.000000 0.000000
vn 0.000000 -1.000000 0.000000
vn 1.000000 0.000000 0.000000
vn 1.000000 0.000000 0.000000
vn 1.000000 0.000000 0.000000
vn 1.000000 0.000000 0.000000
vn -1.000000 0.000000 0.000000
vn -1.000000 0.000000 0.000000
vn -1.000000 0.000000 0.000000
vn -1.000000 0.000000 0.000000
vn 0.000000 0.000000 1.000000
vn 0.000000 0.000000 1.000000
vn 0.000000 0.000000 1.000000
vn 0.000000 0.000000 1.000000
vn 0.000000 0.000000 -1.000000
vn 0.000000 0.000000 -1.000000
vn 0.000000 0.000000 -1.000000
vn 0.000000 0.000000 -1.000000
vn 1.000000 0.000000 0.000000
vn 1.000000 0.000000 0.000000
vn 1.000000 0.000000 0.000000
vn 1.000000 0.000000 0.000000
vn -1.000000 0.000000 0.000000
vn -1.000000 0.000000 0.000000
vn -1.000000 0.000000 0.000000
vn -1.000000 0.000000 0.000000
vn 0.000000 1.000000 0.000000
vn 0.000000 1.000000 0.000000
vn 0.000000 1.000000 0.000000
vn 0.000000 1.000000 0.000000
vn 0.000000 1.000000 0.000000
vn 0.000000 1.000000 0.000000
vn 0.000000 1.000000 0.000000
vn 0.000000 1.000000 0.000000
vn 0.000000 1.000000 0.000000
vn 0.000000 1.000000 0.000000
vn 0.000000 1.000000 0.000000
vn 0.000000 1.000000 0.000000
vn 0.000000 1.000000 0.000000
vn 0.000000 1.000000 0.000000
vn 0.000000 1.000000 0.000000
vn 0.000000 1.000000 0.000000
vn 0.000000 -1.000000 0.000000
vn 0.000000 -1.000000 0.000000
vn 0.000000 -1.000000 0.000000
vn 0.000000 -1.000000 0.000000
vn 0.000000 -1.000000 0.000000
vn 0.000000 -1.000000 0.000000
vn 0.000000 -1.000000 0.000000
vn 0.000000 -1.000000 0.000000
vn 0.000000 -1.000000 0.000000
vn 0.000000 -1.000000 0.000000
vn 0.000000 -1.000000 0.000000
vn 0.000000 -1.000000 0.000000
vn 0.000000 -1.000000 0.000000
vn 0.000000 -1.000000 0.000000
vn 0.000000 -1.000000 0.000000
vn 0.000000 -1.000000 0.000000
vn 0.000000 0.000000 1.000000
vn 0.000000 0.000000 1.000000
vn 1.000000 0.000000 0.000000
vn 1.000000 0.000000 0.000000
vn 0.000000 0.000000 -1.000000
vn 0.000000 0.000000 -1.000000
vn -1.000000 0.000000 0.000000
vn -1.000000 0.000000 0.000000
vn 0.000000 0.000000 1.000000
vn 0.000000 0.000000 1.000000
vn 1.000000 0.000000 0.000000
vn 1.000000 0.000000 0.000000
vn 0.000000 0.000000 -1.000000
vn 0.000000 0.000000 -1.000000
vn -1.000000 0.000000 0.000000
vn -1.000000 0.000000 0.000000
vn 0.000000 0.000000 -1.000000
vn 0.000000 0.000000 -1.000000
vn 0.000000 0.000000 -1.000000
vn 0.000000 0.000000 -1.000000
vn 0.000000 -1.000000 0.000000
vn 0.000000 -1.000000 0.000000
vn -1.000000 0.000000 0.000000
vn -1.000000 0.000000 0.000000
vn -1.000000 0.000000 0.000000
vn -1.000000 0.000000 0.000000
vn 0.000000 1.000000 0.000000
vn 0.000000 1.000000 0.000000
vn 0.000000 -1.000000 0.000000
vn 0.000000 -1.000000 0.000000
vn -1.000000 0.000000 0.000000
vn -1.000000 0.000000 0.000000
vn -1.000000 0.000000 0.000000
vn -1.000000 0.000000 0.000000
vn 0.000000 1.000000 0.000000
vn 0.000000 1.000000 0.000000
vn 0.000000 1.000000 0.000000
vn 0.000000 1.000000 0.000000
vn 0.000000 0.000000 1.000000
vn 0.000000 0.000000 1.000000
vn 0.000000 0.000000 1.000000
vn 0.000000 0.000000 1.000000
vn 0.000000 0.000000 1.000000
vn 0.000000 0.000000 1.000000
vn 0.000000 0.000000 1.000000
vn 0.000000 0.000000 1.000000
vn 0.000000 -1.000000 0.000000
vn 0.000000 -1.000000 0.000000
vn 1.000000 0.000000 0.000000
vn 1.000000 0.000000 0.000000
vn 1.000000 0.000000 0.000000
vn 1.000000 0.000000 0.000000
vn 0.000000 -1.000000 0.000000
vn 0.000000 -1.000000 0.000000
vn 1.000000 0.000000 0.000000
vn 1.000000 0.000000 0.000000
vn 1.000000 0.000000 0.000000
vn 1.000000 0.000000 0.000000
vn 0.000000 1.000000 0.000000
vn 0.000000 1.000000 0.000000
vn 0.000000 0.000000 -1.000000
vn 0.000000 0.000000 -1.000000
vn 0.000000 0.000000 -1.000000
vn 0.000000 0.000000 -1.000000
vn 0.000000 0.000000 1.000000
vn 0.000000 0.000000 1.000000
vn 0.000000 0.000000 1.000000
vn 0.000000 0.000000 1.000000
vn 0.000000 0.000000 -1.000000
vn 0.000000 0.000000 -1.000000
vn 0.000000 0.000000 -1.000000
vn 0.000000 0.000000 -1.000000
vn 1.000000 0.000000 0.000000
vn 1.000000 0.000000 0.000000
vn 1.000000 0.000000 0.000000
vn 1.000000 0.000000 0.000000
vn -1.000000 0.000000 0.000000
vn -1.000000 0.000000 0.000000
vn -1.000000 0.000000 0.000000
vn -1.000000 0.000000 0.000000
vn 0.000000 1.000000 0.000000
vn 0.000000 1.000000 0.000000
vn 0.000000 1.000000 0.000000
vn 0.000000 1.000000 0.000000
vn 0.000000 1.000000 0.000000
vn 0.000000 1.000000 0.000000
vn 0.000000 1.000000 0.000000
vn 0.000000 1.000000 0.000000
vn 0.000000 1.000000 0.000000
vn 0.000000 1.000000 0.000000
vn 0.000000 1.000000 0.000000
vn 0.000000 1.000000 0.000000
vn 0.000000 1.000000 0.000000
vn 0.000000 1.000000 0.000000
vn 0.000000 1.000000 0.000000
vn 0.000000 1.000000 0.000000
vn 0.000000 -1.000000 0.000000
vn 0.000000 -1.000000 0.000000
vn 0.000000 -1.000000 0.000000
vn 0.000000 -1.000000 0.000000
vn 0.000000 -1.000000 0.000000
vn 0.000000 -1.000000 0.000000
vn 0.000000 -1.000000 0.000000
vn 0.000000 -1.000000 0.000000
vn 0.000000 -1.000000 0.000000
vn 0.000000 -1.000000 0.000000
vn 0.000000 -1.000000 0.000000
vn 0.000000 -1.000000 0.000000
vn 0.000000 -1.000000 0.000000
vn 0.000000 -1.000000 0.000000
vn 0.000000 -1.000000 0.000000
vn 0.000000 -1.000000 0.000000
vn 0.000000 0.000000 1.000000
vn 0.000000 0.000000 1.000000
vn 1.000000 0.000000 0.000000
vn 1.000000 0.000000 0.000000
vn 0.000000 0.000000 -1.000000
vn 0.000000 0.000000 -1.000000
vn -1.000000 0.000000 0.000000
vn -1.000000 0.000000 0.000000
vn 0.000000 0.000000 1.000000
vn 0.000000 0.000000 1.000000
vn 1.000000 0.000000 0.000000
vn 1.000000 0.000000 0.000000
vn 0.000000 0.000000 -1.000000
vn 0.000000 0.000000 -1.000000
vn -1.000000 0.000000 0.000000
vn -1.000000 0.000000 0.000000
vn 0.000000 0.000000 -1.000000
vn 0.000000 0.000000 -1.000000
vn 0.000000 0.000000 -1.000000
vn 0.000000 0.000000 -1.000000
vn 0.000000 -1.000000 0.000000
vn 0.000000 -1.000000 0.000000
vn -1.000000 0.000000 0.000000
vn -1.000000 0.000000 0.000000
vn -1.000000 0.000000 0.000000
vn -1.000000 0.000000 0.000000
vn 0.000000 1.000000 0.000000
vn 0.000000 1.000000 0.000000
vn 0.000000 -1.000000 0.000000
vn 0.000000 -1.000000 0.000000
vn -1.000000 0.000000 0.000000
vn -1.000000 0.000000 0.000000
vn -1.000000 0.000000 0.000000
vn -1.000000 0.000000 0.000000
vn 0.000000 1.000000 0.000000
vn 0.000000 1.000000 0.000000
vn 0.000000 1.000000 0.000000
vn 0.000000 1.000000 0.000000
vn 0.000000 0.000000 1.000000
vn 0.000000 0.000000 1.000000
vn 0.000000 0.000000 1.000000
vn 0.000000 0.000000 1.000000
vn 0.000000 0.000000 1.000000
vn 0.000000 0.000000 1.000000
vn 0.000000 0.000000 1.000000
vn 0.000000 0.000000 1.000000
vn 0.000000 -1.000000 0.000000
vn 0.000000 -1.000000 0.000000
vn 1.000000 0.000000 0.000000
vn 1.000000 0.000000 0.000000
vn 1.000000 0.000000 0.000000
vn 1.000000 0.000000 0.000000
vn 0.000000 -1.000000 0.000000
vn 0.000000 -1.000000 0.000000
vn 1.000000 0.000000 0.000000
vn 1.000000 0.000000 0.000000
vn 1.000000 0.000000 0.000000
vn 1.000000 0.000000 0.000000
vn 0.000000 1.000000 0.000000
vn 0.000000 1.000000 0.000000
vn 0.000000 0.000000 -1.000000
vn 0.000000 0.000000 -1.000000
vn 0.000000 0.000000 -1.000000
vn 0.000000 0.000000 -1.000000
# 248 normals

usemtl pasted__pasted__phong1SG
s 1
f 1/1/1 2/2/2 4/3/3 3/4/4
s 2
f 3/5/5 4/6/6 6/7/7 5/8/8
s 3
f 5/9/9 6/10/10 8/11/11 7/12/12
s 4
f 7/13/13 8/14/14 2/15/15 1/16/16
s 5
f 2/17/17 8/18/18 6/19/19 4/20/20
s 6
f 7/21/21 1/22/22 3/23/23 5/24/24
s 7
f 58/25/25 59/26/26 26/27/27 12/28/28
f 59/26/26 60/73/73 30/74/74 26/27/27
f 60/73/73 61/81/81 10/82/82 30/74/74
f 25/111/111 53/112/112 52/113/113 11/114/114
f 29/115/115 54/116/116 53/112/112 25/111/111
f 9/117/117 55/118/118 54/116/116 29/115/115
f 52/113/113 53/112/112 59/26/26 58/25/25
f 53/112/112 54/116/116 60/73/73 59/26/26
f 54/116/116 55/118/118 61/81/81 60/73/73
s 8
f 36/29/29 37/30/30 76/31/31 77/32/32
f 35/77/77 36/29/29 77/32/32 78/78/78
f 34/85/85 35/77/77 78/78/78 79/86/86
f 32/89/89 35/77/77 34/85/85 15/90/90
f 28/91/91 36/29/29 35/77/77 32/89/89
f 13/92/92 37/30/30 36/29/29 28/91/91
f 77/32/32 76/31/31 14/133/133 27/134/134
f 78/78/78 77/32/32 27/134/134 31/135/135
f 79/86/86 78/78/78 31/135/135 16/136/136
s 9
f 64/33/33 65/34/34 72/35/35 73/36/36
f 65/34/34 66/75/75 71/76/76 72/35/35
f 66/75/75 67/83/83 70/84/84 71/76/76
f 26/121/121 65/34/34 64/33/33 12/122/122
f 30/123/123 66/75/75 65/34/34 26/121/121
f 10/124/124 67/83/83 66/75/75 30/123/123
f 71/76/76 70/84/84 16/127/127 31/128/128
f 72/35/35 71/76/76 31/128/128 27/129/129
f 73/36/36 72/35/35 27/129/129 14/130/130
s 10
f 28/37/37 42/38/38 43/39/39 13/40/40
f 32/79/79 41/80/80 42/38/38 28/37/37
f 15/87/87 40/88/88 41/80/80 32/79/79
f 41/80/80 40/88/88 46/95/95 47/96/96
f 42/38/38 41/80/80 47/96/96 48/97/97
f 43/39/39 42/38/38 48/97/97 49/98/98
f 47/96/96 46/95/95 9/103/103 29/104/104
f 48/97/97 47/96/96 29/104/104 25/105/105
f 49/98/98 48/97/97 25/105/105 11/106/106
s 11
f 57/41/41 58/42/42 12/43/43 18/44/44
f 63/45/45 64/46/46 73/47/47 74/48/48
f 75/49/49 76/50/50 37/51/51 38/52/52
f 13/53/53 43/54/54 44/55/55 20/56/56
f 38/52/52 37/51/51 13/53/53 20/56/56
f 44/55/55 43/54/54 49/99/99 50/100/100
f 50/100/100 49/99/99 11/107/107 17/108/108
f 11/107/107 52/109/109 51/110/110 17/108/108
f 51/110/110 52/109/109 58/42/42 57/41/41
f 12/43/43 64/46/46 63/45/45 18/44/44
f 74/48/48 73/47/47 14/131/131 19/132/132
f 14/131/131 76/50/50 75/49/49 19/132/132
s 12
f 33/57/57 34/58/58 79/59/59 80/60/60
f 69/61/61 70/62/62 67/63/63 68/64/64
f 10/65/65 61/66/66 62/67/67 23/68/68
f 39/69/69 40/70/70 15/71/71 21/72/72
f 15/71/71 34/58/58 33/57/57 21/72/72
f 45/93/93 46/94/94 40/70/70 39/69/69
f 9/101/101 46/94/94 45/93/93 24/102/102
f 56/119/119 55/120/120 9/101/101 24/102/102
f 62/67/67 61/66/66 55/120/120 56/119/119
f 68/64/64 67/63/63 10/65/65 23/68/68
f 16/125/125 70/62/62 69/61/61 22/126/126
f 80/60/60 79/59/59 16/125/125 22/126/126
s 13
f 130/137/137 131/138/138 98/139/139 84/140/140
f 131/138/138 132/185/185 102/186/186 98/139/139
f 132/185/185 133/193/193 82/194/194 102/186/186
f 97/223/223 125/224/224 124/225/225 83/226/226
f 101/227/227 126/228/228 125/224/224 97/223/223
f 81/229/229 127/230/230 126/228/228 101/227/227
f 124/225/225 125/224/224 131/138/138 130/137/137
f 125/224/224 126/228/228 132/185/185 131/138/138
f 126/228/228 127/230/230 133/193/193 132/185/185
s 14
f 108/141/141 109/142/142 148/143/143 149/144/144
f 107/189/189 108/141/141 149/144/144 150/190/190
f 106/197/197 107/189/189 150/190/190 151/198/198
f 104/201/201 107/189/189 106/197/197 87/202/202
f 100/203/203 108/141/141 107/189/189 104/201/201
f 85/204/204 109/142/142 108/141/141 100/203/203
f 149/144/144 148/143/143 86/245/245 99/246/246
f 150/190/190 149/144/144 99/246/246 103/247/247
f 151/198/198 150/190/190 103/247/247 88/248/248
s 15
f 136/145/145 137/146/146 144/147/147 145/148/148
f 137/146/146 138/187/187 143/188/188 144/147/147
f 138/187/187 139/195/195 142/196/196 143/188/188
f 98/233/233 137/146/146 136/145/145 84/234/234
f 102/235/235 138/187/187 137/146/146 98/233/233
f 82/236/236 139/195/195 138/187/187 102/235/235
f 143/188/188 142/196/196 88/239/239 103/240/240
f 144/147/147 143/188/188 103/240/240 99/241/241
f 145/148/148 144/147/147 99/241/241 86/242/242
s 16
f 100/149/149 114/150/150 115/151/151 85/152/152
f 104/191/191 113/192/192 114/150/150 100/149/149
f 87/199/199 112/200/200 113/192/192 104/191/191
f 113/192/192 112/200/200 118/207/207 119/208/208
f 114/150/150 113/192/192 119/208/208 120/209/209
f 115/151/151 114/150/150 120/209/209 121/210/210
f 119/208/208 118/207/207 81/215/215 101/216/216
f 120/209/209 119/208/208 101/216/216 97/217/217
f 121/210/210 120/209/209 97/217/217 83/218/218
s 17
f 129/153/153 130/154/154 84/155/155 90/156/156
f 135/157/157 136/158/158 145/159/159 146/160/160
f 147/161/161 148/162/162 109/163/163 110/164/164
f 85/165/165 115/166/166 116/167/167 92/168/168
f 110/164/164 109/163/163 85/165/165 92/168/168
f 116/167/167 115/166/166 121/211/211 122/212/212
f 122/212/212 121/211/211 83/219/219 89/220/220
f 83/219/219 124/221/221 123/222/222 89/220/220
f 123/222/222 124/221/221 130/154/154 129/153/153
f 84/155/155 136/158/158 135/157/157 90/156/156
f 146/160/160 145/159/159 86/243/243 91/244/244
f 86/243/243 148/162/162 147/161/161 91/244/244
s 18
f 105/169/169 106/170/170 151/171/171 152/172/172
f 141/173/173 142/174/174 139/175/175 140/176/176
f 82/177/177 133/178/178 134/179/179 95/180/180
f 111/181/181 112/182/182 87/183/183 93/184/184
f 87/183/183 106/170/170 105/169/169 93/184/184
f 117/205/205 118/206/206 112/182/182 111/181/181
f 81/213/213 118/206/206 117/205/205 96/214/214
f 128/231/231 127/232/232 81/213/213 96/214/214
f 134/179/179 133/178/178 127/232/232 128/231/231
f 140/176/176 139/175/175 82/177/177 95/180/180
f 88/237/237 142/174/174 141/173/173 94/238/238
f 152/172/172 151/171/171 88/237/237 94/238/238

# 126 faces
