# This file uses centimeters as units for non-parametric coordinates.

mtllib FloorM.mtl
g default
v 18.894925 -1.163218 -18.661021
v 55.745381 -1.163218 -18.661021
v 18.894925 1.726186 -18.661021
v 55.745381 1.726186 -18.661021
v 18.894925 1.726186 -55.511477
v 55.745381 1.726186 -55.511477
v 18.894925 -1.163218 -55.511477
v 55.745381 -1.163218 -55.511477
v -18.469562 -1.163218 -18.661021
v 18.380887 -1.163218 -18.661021
v -18.469562 1.726186 -18.661021
v 18.380887 1.726186 -18.661021
v -18.469562 1.726186 -55.511477
v 18.380887 1.726186 -55.511477
v -18.469562 -1.163218 -55.511477
v 18.380887 -1.163218 -55.511477
v -55.745378 -1.163218 -18.661021
v -18.894924 -1.163218 -18.661021
v -55.745378 1.726186 -18.661021
v -18.894924 1.726186 -18.661021
v -55.745378 1.726186 -55.511477
v -18.894924 1.726186 -55.511477
v -55.745378 -1.163218 -55.511477
v -18.894924 -1.163218 -55.511477
v 18.894925 -1.163218 18.278003
v 55.745381 -1.163218 18.278003
v 18.894925 1.726186 18.278003
v 55.745381 1.726186 18.278003
v 18.894925 1.726186 -18.572452
v 55.745381 1.726186 -18.572452
v 18.894925 -1.163218 -18.572452
v 55.745381 -1.163218 -18.572452
v -18.469562 -1.163218 18.278003
v 18.380887 -1.163218 18.278003
v -18.469562 1.726186 18.278003
v 18.380887 1.726186 18.278003
v -18.469562 1.726186 -18.572452
v 18.380887 1.726186 -18.572452
v -18.469562 -1.163218 -18.572452
v 18.380887 -1.163218 -18.572452
v -55.745378 -1.163218 18.278003
v -18.894924 -1.163218 18.278003
v -55.745378 1.726186 18.278003
v -18.894924 1.726186 18.278003
v -55.745378 1.726186 -18.572452
v -18.894924 1.726186 -18.572452
v -55.745378 -1.163218 -18.572452
v -18.894924 -1.163218 -18.572452
v 18.894925 -1.163218 55.511476
v 55.745381 -1.163218 55.511476
v 18.894925 1.726186 55.511476
v 55.745381 1.726186 55.511476
v 18.894925 1.726186 18.661022
v 55.745381 1.726186 18.661022
v 18.894925 -1.163218 18.661022
v 55.745381 -1.163218 18.661022
v -18.469562 -1.163218 55.511476
v 18.380887 -1.163218 55.511476
v -18.469562 1.726186 55.511476
v 18.380887 1.726186 55.511476
v -18.469562 1.726186 18.661022
v 18.380887 1.726186 18.661022
v -18.469562 -1.163218 18.661022
v 18.380887 -1.163218 18.661022
v -55.745378 -1.163218 55.511476
v -18.894924 -1.163218 55.511476
v -55.745378 1.726186 55.511476
v -18.894924 1.726186 55.511476
v -55.745378 1.726186 18.661022
v -18.894924 1.726186 18.661022
v -55.745378 -1.163218 18.661022
v -18.894924 -1.163218 18.661022
v -55.457603 -1.726145 55.166198
v 55.608952 -1.726145 55.166198
v -55.457603 0.101400 55.166198
v 55.608952 0.101400 55.166198
v -55.457603 0.101400 -55.505267
v 55.608952 0.101400 -55.505267
v -55.457603 -1.726145 -55.505267
v 55.608952 -1.726145 -55.505267
vt 0.387699 0.009540
vt 0.565212 0.009534
vt 0.387699 0.023459
vt 0.565212 0.023453
vt 0.387705 0.200972
vt 0.565218 0.200966
vt 0.387705 0.214891
vt 0.565218 0.214885
vt 0.742725 0.009529
vt 0.742726 0.023447
vt 0.210185 0.009546
vt 0.210186 0.023464
vt 0.570629 0.561364
vt 0.748142 0.561358
vt 0.748143 0.575277
vt 0.570629 0.575283
vt 0.748149 0.752790
vt 0.570635 0.752796
vt 0.748149 0.766709
vt 0.570636 0.766715
vt 0.925656 0.561353
vt 0.925656 0.575271
vt 0.393116 0.561370
vt 0.393116 0.575288
vt 0.798850 0.320261
vt 0.621337 0.320250
vt 0.621337 0.306332
vt 0.798851 0.306342
vt 0.621348 0.128819
vt 0.798861 0.128829
vt 0.621349 0.114900
vt 0.798862 0.114910
vt 0.443823 0.320240
vt 0.443824 0.306321
vt 0.976364 0.320271
vt 0.976364 0.306353
vt 0.182688 0.766817
vt 0.360201 0.766811
vt 0.360202 0.780730
vt 0.182688 0.780735
vt 0.360207 0.958243
vt 0.182694 0.958249
vt 0.360208 0.972162
vt 0.182694 0.972167
vt 0.537715 0.766805
vt 0.537715 0.780724
vt 0.005175 0.766822
vt 0.005175 0.780741
vt 0.351914 0.244388
vt 0.174401 0.244410
vt 0.174399 0.230492
vt 0.351912 0.230469
vt 0.174377 0.052978
vt 0.351890 0.052956
vt 0.174375 0.039060
vt 0.351888 0.039037
vt -0.003113 0.244433
vt -0.003114 0.230514
vt 0.529428 0.244365
vt 0.529426 0.230446
vt 0.749082 0.988472
vt 0.571569 0.988438
vt 0.571571 0.974520
vt 0.749085 0.974553
vt 0.571605 0.797006
vt 0.749118 0.797040
vt 0.571608 0.783088
vt 0.749121 0.783121
vt 0.394055 0.988405
vt 0.394058 0.974486
vt 0.926595 0.988506
vt 0.926598 0.974587
vt 0.358745 0.751406
vt 0.181231 0.751422
vt 0.181230 0.737503
vt 0.358744 0.737488
vt 0.181214 0.559990
vt 0.358728 0.559974
vt 0.181213 0.546071
vt 0.358726 0.546056
vt 0.003718 0.751438
vt 0.003717 0.737519
vt 0.536258 0.751390
vt 0.536257 0.737472
vt 0.177352 0.254544
vt 0.354866 0.254538
vt 0.354866 0.268457
vt 0.177353 0.268463
vt 0.354872 0.445970
vt 0.177358 0.445976
vt 0.354872 0.459889
vt 0.177359 0.459895
vt 0.532379 0.254533
vt 0.532379 0.268451
vt -0.000161 0.254550
vt -0.000161 0.268468
vt 0.620365 0.335769
vt 0.797879 0.335764
vt 0.797879 0.349682
vt 0.620366 0.349688
vt 0.797885 0.527196
vt 0.620371 0.527201
vt 0.797885 0.541114
vt 0.620372 0.541120
vt 0.975392 0.335758
vt 0.975392 0.349677
vt 0.442852 0.335775
vt 0.442852 0.349694
vt 0.020223 0.538294
vt 0.020239 0.409410
vt 0.022359 0.409410
vt 0.022343 0.538294
vt 0.150785 0.409426
vt 0.150769 0.538310
vt 0.152906 0.409426
vt 0.152890 0.538311
vt 0.020254 0.280984
vt 0.022375 0.280984
vt 0.020207 0.666720
vt 0.022327 0.666720
vn 0.000000 0.000000 1.000000
vn 0.000000 0.000000 1.000000
vn 0.000000 0.000000 1.000000
vn 0.000000 0.000000 1.000000
vn 0.000000 1.000000 0.000000
vn 0.000000 1.000000 0.000000
vn 0.000000 1.000000 0.000000
vn 0.000000 1.000000 0.000000
vn 0.000000 0.000000 -1.000000
vn 0.000000 0.000000 -1.000000
vn 0.000000 0.000000 -1.000000
vn 0.000000 0.000000 -1.000000
vn 1.000000 0.000000 0.000000
vn 1.000000 0.000000 0.000000
vn 1.000000 0.000000 0.000000
vn 1.000000 0.000000 0.000000
vn -1.000000 0.000000 0.000000
vn -1.000000 0.000000 0.000000
vn -1.000000 0.000000 0.000000
vn -1.000000 0.000000 0.000000
vn 0.000000 0.000000 1.000000
vn 0.000000 0.000000 1.000000
vn 0.000000 0.000000 1.000000
vn 0.000000 0.000000 1.000000
vn 0.000000 1.000000 0.000000
vn 0.000000 1.000000 0.000000
vn 0.000000 1.000000 0.000000
vn 0.000000 1.000000 0.000000
vn 0.000000 0.000000 -1.000000
vn 0.000000 0.000000 -1.000000
vn 0.000000 0.000000 -1.000000
vn 0.000000 0.000000 -1.000000
vn 1.000000 0.000000 0.000000
vn 1.000000 0.000000 0.000000
vn 1.000000 0.000000 0.000000
vn 1.000000 0.000000 0.000000
vn -1.000000 0.000000 0.000000
vn -1.000000 0.000000 0.000000
vn -1.000000 0.000000 0.000000
vn -1.000000 0.000000 0.000000
vn 0.000000 0.000000 1.000000
vn 0.000000 0.000000 1.000000
vn 0.000000 0.000000 1.000000
vn 0.000000 0.000000 1.000000
vn 0.000000 1.000000 0.000000
vn 0.000000 1.000000 0.000000
vn 0.000000 1.000000 0.000000
vn 0.000000 1.000000 0.000000
vn 0.000000 0.000000 -1.000000
vn 0.000000 0.000000 -1.000000
vn 0.000000 0.000000 -1.000000
vn 0.000000 0.000000 -1.000000
vn 1.000000 0.000000 0.000000
vn 1.000000 0.000000 0.000000
vn 1.000000 0.000000 0.000000
vn 1.000000 0.000000 0.000000
vn -1.000000 0.000000 0.000000
vn -1.000000 0.000000 0.000000
vn -1.000000 0.000000 0.000000
vn -1.000000 0.000000 0.000000
vn 0.000000 0.000000 1.000000
vn 0.000000 0.000000 1.000000
vn 0.000000 0.000000 1.000000
vn 0.000000 0.000000 1.000000
vn 0.000000 1.000000 0.000000
vn 0.000000 1.000000 0.000000
vn 0.000000 1.000000 0.000000
vn 0.000000 1.000000 0.000000
vn 0.000000 0.000000 -1.000000
vn 0.000000 0.000000 -1.000000
vn 0.000000 0.000000 -1.000000
vn 0.000000 0.000000 -1.000000
vn 1.000000 0.000000 0.000000
vn 1.000000 0.000000 0.000000
vn 1.000000 0.000000 0.000000
vn 1.000000 0.000000 0.000000
vn -1.000000 0.000000 0.000000
vn -1.000000 0.000000 0.000000
vn -1.000000 0.000000 0.000000
vn -1.000000 0.000000 0.000000
vn 0.000000 0.000000 1.000000
vn 0.000000 0.000000 1.000000
vn 0.000000 0.000000 1.000000
vn 0.000000 0.000000 1.000000
vn 0.000000 1.000000 0.000000
vn 0.000000 1.000000 0.000000
vn 0.000000 1.000000 0.000000
vn 0.000000 1.000000 0.000000
vn 0.000000 0.000000 -1.000000
vn 0.000000 0.000000 -1.000000
vn 0.000000 0.000000 -1.000000
vn 0.000000 0.000000 -1.000000
vn 1.000000 0.000000 0.000000
vn 1.000000 0.000000 0.000000
vn 1.000000 0.000000 0.000000
vn 1.000000 0.000000 0.000000
vn -1.000000 0.000000 0.000000
vn -1.000000 0.000000 0.000000
vn -1.000000 0.000000 0.000000
vn -1.000000 0.000000 0.000000
vn 0.000000 0.000000 1.000000
vn 0.000000 0.000000 1.000000
vn 0.000000 0.000000 1.000000
vn 0.000000 0.000000 1.000000
vn 0.000000 1.000000 0.000000
vn 0.000000 1.000000 0.000000
vn 0.000000 1.000000 0.000000
vn 0.000000 1.000000 0.000000
vn 0.000000 0.000000 -1.000000
vn 0.000000 0.000000 -1.000000
vn 0.000000 0.000000 -1.000000
vn 0.000000 0.000000 -1.000000
vn 1.000000 0.000000 0.000000
vn 1.000000 0.000000 0.000000
vn 1.000000 0.000000 0.000000
vn 1.000000 0.000000 0.000000
vn -1.000000 0.000000 0.000000
vn -1.000000 0.000000 0.000000
vn -1.000000 0.000000 0.000000
vn -1.000000 0.000000 0.000000
vn 0.000000 0.000000 1.000000
vn 0.000000 0.000000 1.000000
vn 0.000000 0.000000 1.000000
vn 0.000000 0.000000 1.000000
vn 0.000000 1.000000 0.000000
vn 0.000000 1.000000 0.000000
vn 0.000000 1.000000 0.000000
vn 0.000000 1.000000 0.000000
vn 0.000000 0.000000 -1.000000
vn 0.000000 0.000000 -1.000000
vn 0.000000 0.000000 -1.000000
vn 0.000000 0.000000 -1.000000
vn 1.000000 0.000000 0.000000
vn 1.000000 0.000000 0.000000
vn 1.000000 0.000000 0.000000
vn 1.000000 0.000000 0.000000
vn -1.000000 0.000000 0.000000
vn -1.000000 0.000000 0.000000
vn -1.000000 0.000000 0.000000
vn -1.000000 0.000000 0.000000
vn 0.000000 0.000000 1.000000
vn 0.000000 0.000000 1.000000
vn 0.000000 0.000000 1.000000
vn 0.000000 0.000000 1.000000
vn 0.000000 1.000000 0.000000
vn 0.000000 1.000000 0.000000
vn 0.000000 1.000000 0.000000
vn 0.000000 1.000000 0.000000
vn 0.000000 0.000000 -1.000000
vn 0.000000 0.000000 -1.000000
vn 0.000000 0.000000 -1.000000
vn 0.000000 0.000000 -1.000000
vn 1.000000 0.000000 0.000000
vn 1.000000 0.000000 0.000000
vn 1.000000 0.000000 0.000000
vn 1.000000 0.000000 0.000000
vn -1.000000 0.000000 0.000000
vn -1.000000 0.000000 0.000000
vn -1.000000 0.000000 0.000000
vn -1.000000 0.000000 0.000000
vn 0.000000 0.000000 1.000000
vn 0.000000 0.000000 1.000000
vn 0.000000 0.000000 1.000000
vn 0.000000 0.000000 1.000000
vn 0.000000 1.000000 0.000000
vn 0.000000 1.000000 0.000000
vn 0.000000 1.000000 0.000000
vn 0.000000 1.000000 0.000000
vn 0.000000 0.000000 -1.000000
vn 0.000000 0.000000 -1.000000
vn 0.000000 0.000000 -1.000000
vn 0.000000 0.000000 -1.000000
vn 1.000000 0.000000 0.000000
vn 1.000000 0.000000 0.000000
vn 1.000000 0.000000 0.000000
vn 1.000000 0.000000 0.000000
vn -1.000000 0.000000 0.000000
vn -1.000000 0.000000 0.000000
vn -1.000000 0.000000 0.000000
vn -1.000000 0.000000 0.000000
vn 0.000000 0.000000 1.000000
vn 0.000000 0.000000 1.000000
vn 0.000000 0.000000 1.000000
vn 0.000000 0.000000 1.000000
vn 0.000000 1.000000 0.000000
vn 0.000000 1.000000 0.000000
vn 0.000000 1.000000 0.000000
vn 0.000000 1.000000 0.000000
vn 0.000000 0.000000 -1.000000
vn 0.000000 0.000000 -1.000000
vn 0.000000 0.000000 -1.000000
vn 0.000000 0.000000 -1.000000
vn 1.000000 0.000000 0.000000
vn 1.000000 0.000000 0.000000
vn 1.000000 0.000000 0.000000
vn 1.000000 0.000000 0.000000
vn -1.000000 0.000000 0.000000
vn -1.000000 0.000000 0.000000
vn -1.000000 0.000000 0.000000
vn -1.000000 0.000000 0.000000
s off
g pCube258
usemtl initialShadingGroup
f 1/1/1 2/2/2 4/4/3 3/3/4
f 3/3/5 4/4/6 6/6/7 5/5/8
f 5/5/9 6/6/10 8/8/11 7/7/12
f 2/2/13 8/9/14 6/10/15 4/4/16
f 7/11/17 1/1/18 3/3/19 5/12/20
f 9/13/21 10/14/22 12/15/23 11/16/24
f 11/16/25 12/15/26 14/17/27 13/18/28
f 13/18/29 14/17/30 16/19/31 15/20/32
f 10/14/33 16/21/34 14/22/35 12/15/36
f 15/23/37 9/13/38 11/16/39 13/24/40
f 17/25/41 18/26/42 20/27/43 19/28/44
f 19/28/45 20/27/46 22/29/47 21/30/48
f 21/30/49 22/29/50 24/31/51 23/32/52
f 18/26/53 24/33/54 22/34/55 20/27/56
f 23/35/57 17/25/58 19/28/59 21/36/60
f 25/37/61 26/38/62 28/39/63 27/40/64
f 27/40/65 28/39/66 30/41/67 29/42/68
f 29/42/69 30/41/70 32/43/71 31/44/72
f 26/38/73 32/45/74 30/46/75 28/39/76
f 31/47/77 25/37/78 27/40/79 29/48/80
f 33/49/81 34/50/82 36/51/83 35/52/84
f 35/52/85 36/51/86 38/53/87 37/54/88
f 37/54/89 38/53/90 40/55/91 39/56/92
f 34/50/93 40/57/94 38/58/95 36/51/96
f 39/59/97 33/49/98 35/52/99 37/60/100
f 41/61/101 42/62/102 44/63/103 43/64/104
f 43/64/105 44/63/106 46/65/107 45/66/108
f 45/66/109 46/65/110 48/67/111 47/68/112
f 42/62/113 48/69/114 46/70/115 44/63/116
f 47/71/117 41/61/118 43/64/119 45/72/120
f 49/73/121 50/74/122 52/75/123 51/76/124
f 51/76/125 52/75/126 54/77/127 53/78/128
f 53/78/129 54/77/130 56/79/131 55/80/132
f 50/74/133 56/81/134 54/82/135 52/75/136
f 55/83/137 49/73/138 51/76/139 53/84/140
f 57/85/141 58/86/142 60/87/143 59/88/144
f 59/88/145 60/87/146 62/89/147 61/90/148
f 61/90/149 62/89/150 64/91/151 63/92/152
f 58/86/153 64/93/154 62/94/155 60/87/156
f 63/95/157 57/85/158 59/88/159 61/96/160
f 65/97/161 66/98/162 68/99/163 67/100/164
f 67/100/165 68/99/166 70/101/167 69/102/168
f 69/102/169 70/101/170 72/103/171 71/104/172
f 66/98/173 72/105/174 70/106/175 68/99/176
f 71/107/177 65/97/178 67/100/179 69/108/180
f 73/109/181 74/110/182 76/111/183 75/112/184
f 75/112/185 76/111/186 78/113/187 77/114/188
f 77/114/189 78/113/190 80/115/191 79/116/192
f 74/110/193 80/117/194 78/118/195 76/111/196
f 79/119/197 73/109/198 75/112/199 77/120/200
